<?xml version="1.0" standalone="no"?>
<!DOCTYPE svg PUBLIC "-//W3C//DTD SVG 1.1//EN" "http://www.w3.org/Graphics/SVG/1.1/DTD/svg11.dtd" >
<svg>
<metadata>
Created by FontForge 20090914 at Sun Mar 13 13:35:31 2016
 By www-data
(c) Jakob Fischer at www.pizzadude.dk - DO NOT DISTRIBUTE WITHOUT AUTHOR'S PERMISSION!
</metadata>
<defs>
<font id="LoveLetters" horiz-adv-x="452" >
  <font-face 
    font-family="LoveLetters"
    font-weight="400"
    font-stretch="normal"
    units-per-em="1000"
    panose-1="0 0 4 0 0 0 0 0 0 0"
    ascent="803"
    descent="-197"
    x-height="595.999"
    cap-height="738.999"
    bbox="-0.00292969 -197.001 1109 805.998"
    underline-thickness="20"
    underline-position="-123"
    unicode-range="U+0020-U+041C"
  />
<missing-glyph horiz-adv-x="500" 
d="M63 0v803h375v-803h-375zM125 63h250v678h-250v-678z" />
    <glyph glyph-name=".notdef" horiz-adv-x="500" 
d="M63 0v803h375v-803h-375zM125 63h250v678h-250v-678z" />
    <glyph glyph-name="space" unicode=" " 
 />
    <glyph glyph-name="exclam" unicode="!" horiz-adv-x="468" 
d="M472 271c-10.667 -14 -24.668 -20.999 -42.001 -20.999c5.33301 0 8 0.333008 8 1c0 2 -13.667 5.66699 -41 11c-38.667 7.33301 -65.334 11.333 -80.001 12c-30.667 6 -59.667 12.333 -87 19c-45.333 10.667 -68 21 -68 31c0 7.33301 3.66699 14 11 20s15 9 23 9
c2 0 16 -3.66699 42 -11l42 -12h15c8.66699 74 23.334 162 44.001 264c24.667 122 43.334 183 56.001 183c7.33301 0 14 -3.66699 20 -11s9 -15 9 -23c0 -7.33301 -7 -43.333 -21 -108l-30 -138c-9.33301 -42 -16.333 -100 -21 -174c13.333 -8.66699 38 -14.334 74 -17.001
c14.667 -1.33301 25.667 -7 33 -17c4 -6 8.33301 -12 13 -18zM455.999 -10.999c0 -4.66699 -6.33398 -25.333 -19.001 -62c-23.333 -67.333 -72.333 -101 -147 -101h-33c-33.333 0 -70.666 14.333 -111.999 43c-47.333 32.667 -71 69.667 -71 111
c0 60.667 20.833 112.667 62.5 156s92.834 65 153.501 65c20 0 30 -8 30 -24c0 -4.66699 -5 -10.5 -15 -17.5s-17.333 -10.5 -22 -10.5c-2 0 -5.33301 1.16699 -10 3.5s-8.33398 3.5 -11.001 3.5c15.333 0 5 -9 -31 -27c-46 -23.333 -72 -39.666 -78 -48.999
c-18 -30 -27 -61.333 -27 -94c0 -34 18.333 -62.333 55 -85c32 -20 66 -30 102 -30c34.667 0 63 10.5 85 31.5s33 48.833 33 83.5c0 18 -7.33301 33.5 -22 46.5s-31 19.5 -49 19.5c-29.333 0 -55.333 -11.333 -78 -34c0.666992 -4.66699 4.33398 -9.83398 11.001 -15.501
s12.334 -8.5 17.001 -8.5c2 0 5.33301 2.16699 10 6.5s8.33398 6.5 11.001 6.5c12 0 24.667 -6.66699 38 -20v-31c-18.667 -9.33301 -30.667 -14 -36 -14h-34c-14.667 0 -30.334 7.5 -47.001 22.5s-25 29.833 -25 44.5c0 28 21 51 63 69c31.333 13.333 59.666 20 84.999 20
c27.333 0 52.666 -11.333 75.999 -34s35 -47.667 35 -75z" />
    <glyph glyph-name="quotedbl" unicode="&#x22;" horiz-adv-x="469" 
d="M437 756c0 -3.33301 -2 -10.002 -6 -20.002s-6 -17.333 -6 -22c-0.666992 -8 0.166016 -19.5 2.49902 -34.5s3.5 -25.833 3.5 -32.5c0 -18 -2 -39.667 -6 -65c-5.33301 -34 -13.666 -51 -24.999 -51c-7.33301 0 -16.5 3.16699 -27.5 9.5s-16.5 12.833 -16.5 19.5
c0 8.66699 5.66699 26.667 17 54c1.33301 3.33301 2 11.333 2 24c0 -1.33301 -1.33301 8.66699 -4 30c-64 10.667 -96 31.334 -96 62.001c0 18.667 11 35.334 33 50.001c19.333 13.333 39 20 59 20c10.667 0 25 -5 43 -15s27 -19.667 27 -29zM256 637.998
c0 -60.667 -10.334 -91.002 -31.001 -91.002c-9.33301 0 -19 3.33301 -29 10s-15 14.334 -15 23.001l16 49l-26 2c-18 1.33301 -34.333 7.33301 -49 18c-16.667 12 -25 26.667 -25 44c0 14.667 6.83301 28.5 20.5 41.5s27.834 19.5 42.501 19.5c30 0 54 -12.333 72 -37
c16 -21.333 24 -47.666 24 -78.999z" />
    <glyph glyph-name="numbersign" unicode="#" horiz-adv-x="469" 
d="M440 221c0 -4.66699 -3.67383 -9.16895 -11.0068 -13.502s-13.333 -6.5 -18 -6.5c2.66699 0 -12.666 3.33301 -45.999 10c-2 -2.66699 -3 -9.33398 -3 -20.001c0 -42 3.66699 -75.667 11 -101c0.666992 -2 2.83398 -5.33301 6.50098 -10s5.5 -8.33398 5.5 -11.001
c0 -17.333 -12.333 -26 -37 -26c-14.667 0 -28 8 -40 24c0.666992 5.33301 0.666992 52.333 0 141c-19.333 3.33301 -34.666 4.33301 -45.999 3l-75 -9c-2 -9.33301 -3 -25.666 -3 -48.999v-46c0 -4 4.33301 -28.333 13 -73c-4 -9.33301 -15.667 -14 -35 -14
c-11.333 0 -23 2.66699 -35 8c0.666992 37.333 -0.666016 93 -3.99902 167c-13.333 0 -24 -1.33301 -32 -4c-34.667 3.33301 -52 12 -52 26c0 15.333 11 24.666 33 27.999c30.667 4.66699 47.667 8 51 10c1.33301 26.667 0.333008 53.334 -3 80.001
c-3.33301 1.33301 -8.33301 2 -15 2c-11.333 0 -29 -3.33301 -53 -10c-12 0 -27 7 -45 21v17c2 2.66699 8.83301 6.83398 20.5 12.501s19.167 8.5 22.5 8.5c5.33301 0 12.833 -0.666992 22.5 -2s17.167 -2 22.5 -2c16.667 0 25 7 25 21
c-0.666992 8 -3.33398 33.333 -8.00098 76l-8 75c0 24 0.666992 37.667 2 41c4 9.33301 15.667 14 35 14c18 0 27 -13.667 27 -41c0 -4 -0.5 -10.5 -1.5 -19.5s-1.5 -15.833 -1.5 -20.5l9 -133h114l-26 211c0 4.66699 2.33301 9 7 13s9.33398 6 14.001 6
c8.66699 0 21.667 -4.66699 39 -14c11.333 -144 19.333 -216 24 -216c6 0 15 1.66699 27 5s21 5 27 5c6.66699 0 13.334 -5.16699 20.001 -15.5s10 -19.166 10 -26.499c0 -3.33301 -2.66699 -8 -8 -14s-9.66602 -9 -12.999 -9c-2.66699 0 -6.5 1.16699 -11.5 3.5
s-8.83301 3.5 -11.5 3.5h-32c-2.66699 -2.66699 -4 -8.66699 -4 -18c0 -6.66699 0.833008 -16.667 2.5 -30s2.5 -23.333 2.5 -30c3.33301 0 8.33301 -1 15 -3c2.66699 0 6.83398 0.5 12.501 1.5s9.83398 1.5 12.501 1.5c11.333 0 21.666 -5.16699 30.999 -15.5
s14 -21.166 14 -32.499zM303.993 262.998l-10 80h-116v-82c4 -7.33301 9.33301 -11 16 -11c14 0 32.333 1.66699 55 5z" />
    <glyph glyph-name="dollar" unicode="$" horiz-adv-x="378" 
d="M349 222c0 -30 -14.332 -58.3389 -42.999 -85.0059c-26 -24.667 -54.667 -40.667 -86 -48c-2 -13.333 0 -33 6 -59c7.33301 -32.667 11.666 -54 12.999 -64c-7.33301 -8 -15.333 -13.667 -24 -17c-10.667 0 -21.667 2.66699 -33 8c-14 6 -20 13.667 -18 23
c2.66699 12 4 24 4 36c0 8.66699 -1.16699 21.834 -3.5 39.501s-3.5 30.834 -3.5 39.501c-14 8.66699 -37.333 27 -70 55c-36.667 31.333 -55 51 -55 59c0 4.66699 3.83301 11 11.5 19s13.834 12 18.501 12c10.667 0 19.667 -2.66699 27 -8c14.667 -20.667 37 -47 67 -79
c1.33301 2 2 31.667 2 89c0 6.66699 -0.666992 16.167 -2 28.5s-2 21.833 -2 28.5l-94 30c-32 14.667 -48 39.334 -48 74.001c0 27.333 7 48.333 21 63c27.333 29.333 65.333 58.333 114 87c4 10.667 6 22.334 6 35.001c0 4.66699 -0.5 11.834 -1.5 21.501
s-1.5 16.834 -1.5 21.501c0 17.333 10.667 26 32 26c18 0 27.333 -13 28 -39c0 -4.66699 -0.333008 -25 -1 -61c60.667 -11.333 91 -42 91 -92c0 -8 -3.33301 -15.167 -10 -21.5s-14 -9.5 -22 -9.5s-15.5 3.16699 -22.5 9.5s-11.5 9.83301 -13.5 10.5
c0 0.666992 1.16699 3 3.5 7s3.5 7.33301 3.5 10c0 4.66699 -3.5 11.667 -10.5 21s-12.833 15 -17.5 17l-3 -163c35.333 -6.66699 65.666 -20 90.999 -40c30.667 -24 46 -52 46 -84zM158.001 356.994v76.001c0 18.667 -2.33301 41.667 -7 69
c-9.33301 -4.66699 -23.333 -16 -42 -34c-23.333 -22.667 -35 -41.667 -35 -57c0 -16.667 6.33301 -29.834 19 -39.501s27.667 -14.5 45 -14.5h20zM288.001 229.995c0 14.667 -9.66602 27.999 -28.999 39.999l-43 25v-158c17.333 4.66699 33.666 16.834 48.999 36.501
s23 38.5 23 56.5z" />
    <glyph glyph-name="percent" unicode="%" 
 />
    <glyph glyph-name="ampersand" unicode="&#x26;" 
 />
    <glyph glyph-name="quotesingle" unicode="'" 
 />
    <glyph glyph-name="parenleft" unicode="(" horiz-adv-x="314" 
d="M336 769c0 -2.66699 -0.5 -6.16699 -1.5 -10.5s-1.5 -7.83301 -1.5 -10.5c-10.667 0.666992 -20.334 -3 -29.001 -11c-64 -60 -118.667 -137 -164 -231c-48 -98.667 -72 -189.334 -72 -272.001c0 -112.667 44.667 -212.667 134 -300c30 -29.333 45.667 -45.333 47 -48
c0 -27.333 -11.333 -41 -34 -41c-3.33301 0.666992 -10.666 3.33398 -21.999 8.00098c-6.66699 2.66699 -12.667 4.33398 -18 5.00098c-62.667 75.333 -105 136.666 -127 183.999c-25.333 54 -38 116.667 -38 188c0 94 34.667 211.333 104 352c12 24.667 39 64.667 81 120
c49.333 65.333 83 98 101 98c6.66699 0 15 -3.5 25 -10.5s15 -13.833 15 -20.5z" />
    <glyph glyph-name="parenright" unicode=")" horiz-adv-x="310" 
d="M275 301c0 -39.333 -6.33594 -87.3311 -19.0029 -143.998c-11.333 -52.667 -25 -99 -41 -139c-22 -54.667 -60.333 -102.667 -115 -144l-23 -24c-6 -5.33301 -16 -8 -30 -8c-10 0 -16.333 0.333008 -19 1c-6.66699 2.66699 -12.667 10.667 -18 24
c10.667 13.333 29.334 30.166 56.001 50.499s45.334 37.166 56.001 50.499c21.333 27.333 40.333 70 57 128c23.333 81.333 35 147 35 197c0 58.667 -18.333 139.334 -55 242.001l-40 114c-4.66699 12.667 -18 36 -40 70c-16 24.667 -24 38 -24 40
c0 6.66699 4.33301 13 13 19s16.334 9 23.001 9c24.667 0 55.667 -46.333 93 -139c3.33301 -8.66699 25.333 -70.667 66 -186c5.33301 -14.667 10.833 -40.834 16.5 -78.501s8.5 -65.167 8.5 -82.5z" />
    <glyph glyph-name="asterisk" unicode="*" horiz-adv-x="410" 
d="M379 297c0 -2.66699 -1.16113 -7.00293 -3.49414 -13.0029s-3.5 -10.667 -3.5 -14c-12 -2.66699 -24.333 -4 -37 -4c-24.667 0.666992 -37.334 0.666992 -38.001 0c-9.33301 0 -14.666 -1.66699 -15.999 -5c26.667 -28 47 -41 61 -39c11.333 -8.66699 17 -16.667 17 -24
c0 -9.33301 -3.33301 -17.666 -10 -24.999s-14.667 -11 -24 -11c-17.333 0 -29 4.66699 -35 14c-8.66699 13.333 -23 24 -43 32c-0.666992 -12 1.66602 -29 6.99902 -51l8 -33c0 -7.33301 -3.33301 -14.666 -10 -21.999s-13.667 -11 -21 -11c-9.33301 0 -22.333 7 -39 21
c1.33301 9.33301 2 19.333 2 30c0 22 -3.33301 46 -10 72c-4.66699 -3.33301 -16.334 -19.333 -35.001 -48c-17.333 -26 -28.333 -39 -33 -39c-6.66699 0 -19.334 4.33301 -38.001 13v17c0 4.66699 18.333 31.667 55 81c-6.66699 0 -16.167 -0.666992 -28.5 -2
s-21.833 -2 -28.5 -2c-6 0 -21.667 4.33301 -47 13v24c18 16.667 36.667 24.334 56 23.001c28 -2 45 -2 51 0c-22.667 22 -58.334 50.667 -107.001 86v18c19.333 13.333 34 20 44 20c5.33301 0 22.666 -13 51.999 -39l44 -39c0 12 -1.66699 31 -5 57l-5 39
c0 6 3.66699 12 11 18s14.333 9 21 9c12 0 21.333 -4.66699 28 -14c1.33301 -32.667 4.66602 -59.334 9.99902 -80.001c4.66699 4.66699 10.667 17.334 18 38.001c4.66699 14 16.667 21 36 21c22.667 0 34 -8.66699 34 -26c0 -4 -10 -19 -30 -45
c-22 -28.667 -33.667 -44.334 -35 -47.001c5.33301 0 13.333 1.33301 24 4s18.667 4 24 4s13.333 1 24 3s18.667 3 24 3c7.33301 0 14.333 -2.66699 21 -8s10 -11.666 10 -18.999z" />
    <glyph glyph-name="plus" unicode="+" horiz-adv-x="356" 
d="M382 326c0 -13.333 -4.5 -25.002 -13.5 -35.002s-20.167 -15 -33.5 -15c-6 0 -15.167 1.5 -27.5 4.5s-21.5 4.5 -27.5 4.5c-21.333 0 -35.666 -3 -42.999 -9c-0.666992 -22 -1.33398 -53.667 -2.00098 -95c3.33301 -7.33301 5 -15.666 5 -24.999c0 -26 -11 -39 -33 -39
c-14.667 0 -27.334 7 -38.001 21c4 32 6 77 6 135c3.33301 -0.666992 -30.667 -1 -102 -1c-42 0 -63 11 -63 33c0 7.33301 6.33301 14.5 19 21.5s23 10.5 31 10.5c12.667 0 31.334 -1.16699 56.001 -3.5s43.334 -3.5 56.001 -3.5c1.33301 8.66699 2 21.334 2 38.001v54
c0 55.333 11 83 33 83c15.333 0 24.666 -22.667 27.999 -68c1.33301 -18 3 -50.333 5 -97c24.667 0.666992 47.667 3 69 7l32 6c6.66699 0 15.167 -3 25.5 -9s15.5 -12 15.5 -18z" />
    <glyph glyph-name="comma" unicode="," horiz-adv-x="118" 
d="M126 -111c0 -14 -2.33398 -30.333 -7.00098 -49c-6 -24.667 -14 -37 -24 -37c-24 0 -36 8 -36 24c0 2.66699 0.5 6.66699 1.5 12s1.5 9.33301 1.5 12v21c-23.333 5.33301 -36.666 9 -39.999 11c-14.667 6 -22 16 -22 30c0 15.333 7.5 29.5 22.5 42.5
s30.167 19.5 45.5 19.5c12 0 25.333 -13.333 40 -40c12 -22 18 -37.333 18 -46z" />
    <glyph glyph-name="hyphen" unicode="-" horiz-adv-x="407" 
d="M359 277c0 -6.66699 -4.83398 -12.834 -14.501 -18.501s-18.167 -8.5 -25.5 -8.5l-27 9c-16 3.33301 -42 4 -78 2c-46 -2.66699 -89.667 -2.66699 -131 0c-20.667 1.33301 -37 2 -49 2c-3.33301 0 -7.16602 3 -11.499 9s-6.5 11 -6.5 15c0 8 5.16699 15.167 15.5 21.5
s19.833 9.5 28.5 9.5c-28 0 -2 -2.33301 78 -7c42 -2.66699 65.667 -3.66699 71 -3l126 10c6.66699 0.666992 12.667 -4.66602 18 -15.999c4 -8.66699 6 -17 6 -25z" />
    <glyph glyph-name="hyphen" unicode="&#x2010;" horiz-adv-x="407" 
d="M359 277c0 -6.66699 -4.83398 -12.834 -14.501 -18.501s-18.167 -8.5 -25.5 -8.5l-27 9c-16 3.33301 -42 4 -78 2c-46 -2.66699 -89.667 -2.66699 -131 0c-20.667 1.33301 -37 2 -49 2c-3.33301 0 -7.16602 3 -11.499 9s-6.5 11 -6.5 15c0 8 5.16699 15.167 15.5 21.5
s19.833 9.5 28.5 9.5c-28 0 -2 -2.33301 78 -7c42 -2.66699 65.667 -3.66699 71 -3l126 10c6.66699 0.666992 12.667 -4.66602 18 -15.999c4 -8.66699 6 -17 6 -25z" />
    <glyph glyph-name="period" unicode="." horiz-adv-x="112" 
d="M120 -124c0 -14 -6.5 -27.5 -19.5 -40.5s-26.5 -19.5 -40.5 -19.5s-26.333 3 -37 9c-13.333 7.33301 -20 17.333 -20 30c0 18.667 5.83301 34.667 17.5 48s26.5 20 44.5 20c36.667 0 55 -15.667 55 -47z" />
    <glyph glyph-name="zero" unicode="0" horiz-adv-x="494" 
d="M459 385c0 -50.667 -12.832 -109.998 -38.499 -177.998s-54.834 -122.333 -87.501 -163c-5.33301 -6 -16 -16.333 -32 -31l-27 -24c-9.33301 -4.66699 -25.666 -7 -48.999 -7c-39.333 0 -79.333 14.667 -120 44s-66.334 62.666 -77.001 99.999
c-8.66699 29.333 -13 72 -13 128c0 95.333 22.667 183.333 68 264c10.667 18.667 31.334 41.667 62.001 69c4 4 14.667 16 32 36c11.333 13.333 23.666 21.333 36.999 24c3.33301 0.666992 13.666 1 30.999 1c6 0 21.333 -2.33301 46 -7
c38.667 -7.33301 65.334 -19 80.001 -35c22.667 -24.667 43 -59.334 61 -104.001s27 -83.667 27 -117zM404.001 371.002c0 32.667 -11.001 75.333 -33.001 128c-29.333 70 -61.666 103.333 -96.999 100l-23 -2c-20.667 -2 -32 -2.66699 -34 -2
c-48.667 -32.667 -87 -85 -115 -157c-23.333 -60 -35 -117.667 -35 -173c0 -126 29.667 -197.333 89 -214c38.667 -15.333 61 -23 67 -23c42.667 0 85 48 127 144c36 82.667 54 149 54 199z" />
    <glyph glyph-name="one" unicode="1" horiz-adv-x="330" 
d="M337 -95c0 -7.33301 -2.99707 -14 -8.99707 -20s-12.667 -9 -20 -9c-8.66699 0 -21.5 2 -38.5 6s-29.833 6 -38.5 6c-6 0 -15.167 -1.5 -27.5 -4.5s-21.5 -4.5 -27.5 -4.5c-2 0 -8 2.16699 -18 6.5s-16.667 6.83301 -20 7.5
c-42.667 6.66699 -64.334 10.334 -65.001 11.001c-26.667 5.33301 -47 12.666 -61 21.999c1.33301 5.33301 7.66602 12 18.999 20s19.666 12 24.999 12c8 0 23.333 -4.16699 46 -12.5s39.667 -12.5 51 -12.5c14 61.333 27 142.333 39 243c22 184 40.333 323 55 417l-58 -72
c-35.333 -43.333 -60.333 -65 -75 -65c-7.33301 0 -18 4.66699 -32 14c108.667 112 166.667 189.333 174 232c20.667 10.667 33 16 37 16c2.66699 0 6.5 -0.666992 11.5 -2s8.83301 -2 11.5 -2l2 -5c0.666992 -3.33301 1 -6.33301 1 -9l-29 -176
c-21.333 -128.667 -34.333 -212.667 -39 -252l-38 -309v-33c82.667 0 124 -8.33301 124 -25z" />
    <glyph glyph-name="two" unicode="2" horiz-adv-x="465" 
d="M456 593c0 -22.667 -2.33398 -41.0029 -7.00098 -55.0029c-12 -35.333 -56.667 -100.666 -134 -195.999c-50 -61.333 -93 -118.666 -129 -171.999l-107 -158c28 -15.333 72 -31.333 132 -48s103.333 -32 130 -46c4 14.667 7.33301 61 10 139c2 57.333 1.66699 108 -1 152
c15.333 13.333 28.333 20 39 20c7.33301 0 15.333 -4.33301 24 -13c-0.666992 -4.66699 -3 -14 -7 -28c-3.33301 -11.333 -5 -20.333 -5 -27v-263c0 -2 1 -4.83301 3 -8.5s3 -6.5 3 -8.5c0 -6 -3.33301 -12.833 -10 -20.5s-13 -11.5 -19 -11.5h-18c-2 0 -18 7.66699 -48 23
c-32 17.333 -50.667 27 -56 29l-97 38c-102 23.333 -153 40.333 -153 51l110 167c28 43.333 71.667 103.333 131 180l95 121c41.333 53.333 62 102.333 62 147c0 27.333 -11.667 50 -35 68s-49 27 -77 27c-46.667 0 -84.667 -9.33301 -114 -28c-35.333 -22 -53 -55 -53 -99
c0 -17.333 4.66699 -33 14 -47s22.333 -21 39 -21c15.333 0 23 4.66699 23 14c0 2.66699 -6.66699 11.334 -20 26.001s-20 23 -20 25c0 7.33301 9 14 27 20c6 2 10.667 3 14 3c12.667 0 26.167 -11 40.5 -33s21.5 -39.667 21.5 -53c0 -12 -12 -23.333 -36 -34
c-18 -8 -33.667 -13 -47 -15c-36 0 -64 13.667 -84 41c-18 24.667 -27 55.667 -27 93c0 9.33301 6.83301 26.5 20.5 51.5s25 41.5 34 49.5s27.833 17 56.5 27c36 12.667 62.333 19 79 19c60.667 0 106.334 -9 137.001 -27c39.333 -23.333 59 -63 59 -119z" />
    <glyph glyph-name="three" unicode="3" horiz-adv-x="482" 
d="M459 218c0 -83.333 -21 -156.666 -63 -219.999c-50 -75.333 -119.667 -113 -209 -113c-52 0 -94.667 30.667 -128 92c-27.333 50.667 -41 101.667 -41 153c0 45.333 13.333 85.333 40 120c28.667 38.667 65 58 109 58c30 0 55.667 -13.667 77 -41
c20 -24.667 30 -52.667 30 -84c0 -23.333 -6.66699 -40.666 -20 -51.999c-10.667 -8.66699 -28.334 -15.667 -53.001 -21c-14 2.66699 -28 5 -42 7c-19.333 4.66699 -30.666 10.667 -33.999 18c-0.666992 0.666992 -2.66699 4 -6 10c-2.66699 3.33301 -4 6.33301 -4 9
c0 4 4.33301 9.83301 13 17.5s15 11.5 19 11.5c10.667 0 21.334 -4 32.001 -12l16 -12c14 0 21 7.33301 21 22c0 15.333 -6 31.666 -18 48.999s-25.333 26 -40 26c-31.333 0 -54.666 -19.667 -69.999 -59c-10 -26 -15 -52.333 -15 -79c0 -37.333 11.667 -76.333 35 -117
c26.667 -46.667 58 -70 94 -70c70 0 123.667 36.333 161 109c27.333 53.333 41 111 41 173c0 20 -5.16699 44.5 -15.5 73.5s-21.833 51.5 -34.5 67.5c-30.667 38 -72.334 57 -125.001 57c-10 0 -17.667 -0.333008 -23 -1c-27.333 -3.33301 -39 -5 -35 -5
c-24.667 0 -37 9 -37 27l61 95c39.333 60.667 71.666 116.667 96.999 168c-6 3.33301 -13.667 5 -23 5c-17.333 0 -42.666 -3.66699 -75.999 -11s-58.333 -11 -75 -11c-10.667 0 -23 -1 -37 -3c-1.33301 -0.666992 -2 -5 -2 -13c0 -10.667 5.5 -28.5 16.5 -53.5
s16.5 -42.833 16.5 -53.5c0 -17.333 -8.33301 -26 -25 -26c-8.66699 0 -19 4.33301 -31 13c-2 16 -10.333 44 -25 84l-22 60c0 10 3.83301 18.833 11.5 26.5s16.5 11.5 26.5 11.5c5.33301 0 13 -0.5 23 -1.5s17.667 -1.5 23 -1.5c27.333 0 67.5 5 120.5 15
s93.167 15 120.5 15c3.33301 0 8.83301 -2.33301 16.5 -7s11.5 -8.33398 11.5 -11.001c0 -12.667 -22.333 -58 -67 -136l-79 -138c8 0.666992 16 1 24 1c65.333 0 118.666 -24.333 159.999 -73c39.333 -46 59 -102.333 59 -169z" />
    <glyph glyph-name="four" unicode="4" horiz-adv-x="394" 
d="M380 373c-2.66699 -12.667 -4.99805 -25.332 -6.99805 -37.999c-3.33301 -10 -9 -15 -17 -15l-47 9c-12.667 -39.333 -22.667 -101.333 -30 -186c-6.66699 -76 -9 -139.333 -7 -190c-8 -10.667 -16 -16 -24 -16c-6 0 -14.333 2.5 -25 7.5s-16 10.167 -16 15.5
c0 -4 2.66699 2 8 18c1.33301 30.667 5 78 11 142c1.33301 14 6.66602 48.667 15.999 104c6 35.333 9 63.333 9 84c0 9.33301 -0.333008 18 -1 26c-12.667 4 -70 6 -172 6c-4 0 -9.66699 -0.833008 -17 -2.5s-13 -2.5 -17 -2.5c-6.66699 0 -15.167 4.33301 -25.5 13
s-15.5 16 -15.5 22c0 1.33301 7.5 10 22.5 26s23.5 25.667 25.5 29c14 23.333 30.667 67.666 50 132.999c9.33301 31.333 14.666 57.666 15.999 78.999c-0.666992 4.66699 -3 23.334 -7 56.001c14.667 10.667 26.667 16 36 16c18 0 27 -15.667 27 -47
c0 -44.667 -7.83301 -92 -23.5 -142s-36.167 -93 -61.5 -129c0 -1.33301 1.66699 -4 5 -8h169c20.667 130 34 243 40 339c2.66699 4.66699 8.33398 9.16699 17.001 13.5s15.667 6.5 21 6.5c4 0 8.5 -3 13.5 -9s7.83301 -11 8.5 -15l-49 -335c10.667 -6 17.667 -9 21 -9
c27.333 0 42.666 -0.333008 45.999 -1z" />
    <glyph glyph-name="five" unicode="5" horiz-adv-x="476" 
d="M450 285c0 -53.333 -12.332 -104.672 -36.999 -154.005c-26.667 -53.333 -62.334 -91.333 -107.001 -114c-11.333 -5.33301 -34 -13.5 -68 -24.5s-55.667 -16.5 -65 -16.5c-52 0 -93.333 23.667 -124 71c-26.667 40.667 -40 88.667 -40 144v72
c8 56.667 23 98.334 45 125.001c26.667 31.333 67 47 121 47c22.667 0 43.167 -10.833 61.5 -32.5s27.5 -44.167 27.5 -67.5c0 -22 -6.16699 -40.667 -18.5 -56s-29.166 -23 -50.499 -23c-17.333 0 -31 4.33301 -41 13l-20 28c2 4 8.83301 9.83301 20.5 17.5
s19.5 11.5 23.5 11.5c2 0 4.66699 -1 8 -3s6.33301 -3 9 -3c8 0 12 4.33301 12 13c0 16.667 -9.33301 29.667 -28 39c-15.333 8 -32 12 -50 12c-24 0 -42.333 -20.667 -55 -62c-8.66699 -28.667 -13 -59.667 -13 -93c0 -40.667 6 -79 18 -115c20 -59.333 51.333 -89 94 -89
c67.333 0 121.333 25.333 162 76c38 46.667 57 104.334 57 173.001c0 66.667 -12.667 121.334 -38 164.001c-31.333 52.667 -78 79 -140 79c-24 0 -44 -3.33301 -60 -10l-26 -11c-8 0 -18.667 2.83301 -32 8.5s-20 11.834 -20 18.501c0 2.66699 1.66699 6.83398 5 12.501
s5.33301 9.5 6 11.5c6.66699 23.333 10 47 10 71c0 14 -3 25.333 -9 34l-24 25c12 21.333 28 32 48 32c7.33301 0 18.333 -1 33 -3s25.667 -3 33 -3c9.33301 0 23.5 1 42.5 3s33.167 3 42.5 3h24c2.66699 0 6.83398 1 12.501 3s10.167 3 13.5 3s8.66602 0.5 15.999 1.5
s13 1.5 17 1.5c3.33301 0 11.666 -3.33301 24.999 -10v-32c-8 -8.66699 -16.667 -13 -26 -13c-4 0 -10.167 1 -18.5 3s-14.5 3 -18.5 3c-15.333 0 -42.333 -2 -81 -6c-41.333 -4 -66.333 -7.66699 -75 -11c0 -8 -1 -23 -3 -45l-3 -33v-18l93 13
c11.333 0 35.666 -6.66699 72.999 -20c48.667 -17.333 85.334 -57.333 110.001 -120c18.667 -47.333 28 -95.333 28 -144z" />
    <glyph glyph-name="six" unicode="6" horiz-adv-x="445" 
d="M432 175c0 6.66699 -0.666992 10.335 -2 11.002c-2 0 -16 -37.667 -42 -113c-14 -42 -26.333 -67.667 -37 -77c-34.667 -31.333 -71.667 -47 -111 -47c-78.667 0 -138.667 38.333 -180 115c-32 59.333 -48 128.333 -48 207c0 88 26.667 181 80 279
c58.667 108 123.667 162 195 162c32 0 61.333 -9.33301 88 -28c29.333 -20 44 -45.667 44 -77c0 -30.667 -9.66699 -56.834 -29 -78.501s-44 -32.5 -74 -32.5c-48.667 0 -75 34 -79 102c12 10.667 23.667 16 35 16c20.667 0 31 -8.66699 31 -26v-10
c-0.666992 -4.66699 -1 -8 -1 -10c0 -13.333 7.33301 -20 22 -20c10.667 0 19.334 6.66699 26.001 20c6 11.333 9 22.666 9 33.999c0 42.667 -26.333 64 -79 64c-29.333 0 -65 -28.667 -107 -86c-30.667 -41.333 -49.667 -72 -57 -92c-14.667 -38 -26.667 -76 -36 -114
c23.333 8 45 16 65 24c32.667 12.667 56.667 19 72 19c79.333 0 135.666 -21.333 168.999 -64c30.667 -38 46 -97.333 46 -178zM371 165.001c0 60 -6.66992 104.334 -20.0029 133.001c-21.333 46.667 -62 70 -122 70c-13.333 0 -33.666 -6 -60.999 -18s-43.333 -18 -48 -18
c-6 0 -14 3.66699 -24 11s-16.333 13.666 -19 18.999c-6.66699 -55.333 -10 -81 -10 -77c0 -56 12 -113 36 -171c32.667 -79.333 78.334 -119 137.001 -119c32.667 0 63.334 20.667 92.001 62c26 38 39 74 39 108z" />
    <glyph glyph-name="seven" unicode="7" horiz-adv-x="376" 
d="M401 763c0 -2.66699 -2.66797 -10.9971 -8.00098 -24.9971c-6 -16 -9.33301 -25.333 -10 -28c-19.333 -73.333 -34.666 -141 -45.999 -203l-75 -410c3.33301 -4 8.33301 -6 15 -6c2.66699 0 6.33398 0.5 11.001 1.5s8.33398 1.5 11.001 1.5c18.667 0 28 -9.66699 28 -29
c0 -23.333 -13 -35 -39 -35l-30 5c-8 -17.333 -13.333 -39.333 -16 -66l-7 -71c-0.666992 -6 -0.333984 -13.667 0.999023 -23c1.33301 -12 2 -20 2 -24c0 -6.66699 -3.83301 -14.167 -11.5 -22.5s-14.834 -12.5 -21.501 -12.5c-7.33301 0 -16.833 3 -28.5 9
s-17.5 12.333 -17.5 19l35 175v18c-22 4 -39 7.33301 -51 10c-26 5.33301 -39 14.666 -39 27.999c0 10 7.66699 18.333 23 25c10.667 4.66699 19 7 25 7c1.33301 0 12.333 -2.66699 33 -8l19 -5l45 264l72 366c-151.333 -19.333 -227 -40 -227 -62
c0 -20.667 6.5 -50.834 19.5 -90.501s19.5 -69.834 19.5 -90.501c0 -18 -9.66699 -27 -29 -27c-8 0 -16 2.66699 -24 8s-12.333 11.666 -13 18.999c-8 76 -17.667 134 -29 174c-0.666992 2.66699 -5 8.33398 -13 17.001s-12 14.667 -12 18c0 8 7 16 21 24
s24.667 10.667 32 8l308 71c13.333 -6.66699 21 -10 23 -10c0 -2 0.666992 -5.16699 2 -9.5s2 -7.83301 2 -10.5z" />
    <glyph glyph-name="eight" unicode="8" horiz-adv-x="482" 
d="M498 166c0 -60 -5.33594 -105.002 -16.0029 -135.002c-12.667 -35.333 -38.667 -72.666 -78 -111.999c-48.667 -48.667 -92.667 -73 -132 -73c-4 0 -9.5 -1 -16.5 -3s-12.5 -3 -16.5 -3c-64 0 -118.833 21.333 -164.5 64s-68.5 96 -68.5 160
c0 49.333 17.5 103.666 52.5 162.999s74.167 100 117.5 122c-46.667 39.333 -70 90.333 -70 153c0 17.333 3.66699 44.333 11 81c5.33301 27.333 30 68 74 122c46.667 57.333 81.334 86 104.001 86c2.66699 0 8.33398 -2.33301 17.001 -7l21 -11
c12.667 -2 31 -5.66699 55 -11c47.333 -46 71 -102.333 71 -169c0 -36 -8 -74.667 -24 -116c-19.333 -50 -44.666 -86.667 -75.999 -110c45.333 -22 75 -43.333 89 -64c10 -15.333 20.667 -37.666 32 -66.999c12 -31.333 18 -54.666 18 -69.999zM397.997 574.998
c0 14.667 -2 33.666 -6 56.999c-5.33301 30.667 -12 51 -20 61c-12 14.667 -27 24.334 -45 29.001c-2 0.666992 -6 2.66699 -12 6s-10.333 5 -13 5c-12 0 -34.333 -19.333 -67 -58c-28.667 -34 -45 -55.667 -49 -65c-14.667 -35.333 -22 -71.333 -22 -108
c0 -22.667 4.33301 -45 13 -67c13.333 -34 33 -51 59 -51h41c32.667 0 62 25.333 88 76c22 42.667 33 81 33 115zM437.997 147.997c0 45.333 -16.832 87.334 -50.499 126.001s-72.834 58 -117.501 58c-52.667 0 -101.667 -34.667 -147 -104
c-39.333 -60.667 -59 -114.334 -59 -161.001c0 -51.333 17.167 -93.5 51.5 -126.5s77.5 -49.5 129.5 -49.5c64 0 114 31.667 150 95c28.667 50 43 104 43 162z" />
    <glyph glyph-name="nine" unicode="9" horiz-adv-x="519" 
d="M518 496c0 -52 -24.3359 -130.664 -73.0029 -235.997l-77 -159c-38 -79.333 -58 -129.666 -60 -150.999c-2 -16 -9.33301 -33.333 -22 -52c-16 -23.333 -32.333 -33.333 -49 -30c-26.667 9.33301 -40 18 -40 26c0 13.333 9.66699 33 29 59c2 2 11.667 14.333 29 37
c12 29.333 32 74.666 60 135.999l58 124c-57.333 -28 -103.333 -42 -138 -42c-39.333 0 -81.666 12 -126.999 36c-51.333 27.333 -82.666 59.666 -93.999 96.999c-7.33301 24 -11 56.667 -11 98c0 38.667 22 89 66 151c40.667 57.333 78.667 97.666 114 120.999
c9.33301 6 33.333 16.667 72 32c47.333 18.667 83 28 107 28c12 0 33.667 -15 65 -45c26.667 -26 43.334 -45 50.001 -57c10 -19.333 19.333 -47.333 28 -84s13 -66.334 13 -89.001zM449.997 504.003c0 28.667 -6.99902 67.667 -20.999 117
c-2 7.33301 -13.667 24.333 -35 51c-24.667 31.333 -43.334 47 -56.001 47c-69.333 0 -133 -37.333 -191 -112c-52.667 -67.333 -79 -131.333 -79 -192c0 -46 16.167 -83.5 48.5 -112.5s71.833 -43.5 118.5 -43.5c2.66699 0 6.5 0.666992 11.5 2s8.5 2 10.5 2
c51.333 0 97.333 29.333 138 88c36.667 52.667 55 103.667 55 153z" />
    <glyph glyph-name="colon" unicode=":" horiz-adv-x="139" 
d="M149 384c0 -14.667 -9.33398 -27.001 -28.001 -37.001c-15.333 -8.66699 -31 -13 -47 -13c-12.667 0 -25 6 -37 18s-18 24.333 -18 37c0 14.667 5.83301 27 17.5 37s24.834 15 39.501 15c10 0 24.667 -7.16699 44 -21.5s29 -26.166 29 -35.499zM145.999 208.999
c0 -8.66699 -6 -18.001 -18 -28.001s-22.333 -15 -31 -15h-18c-8.66699 0 -18 4.83301 -28 14.5s-15 18.834 -15 27.501c0 34 16 51 48 51c13.333 0 27 -5.16699 41 -15.5s21 -21.833 21 -34.5z" />
    <glyph glyph-name="semicolon" unicode=";" horiz-adv-x="186" 
d="M123 416c0 -11.333 -6.5 -21.332 -19.5 -29.999s-25.5 -13 -37.5 -13c-12.667 0 -25.167 5.16699 -37.5 15.5s-18.5 21.833 -18.5 34.5c0 14 7 25.833 21 35.5s28.333 14.5 43 14.5c10.667 0 21.5 -6.83301 32.5 -20.5s16.5 -25.834 16.5 -36.501zM146 217.001
c0 -77.333 -17 -116.001 -51 -116.001c-6 0 -13.167 2.83301 -21.5 8.5s-12.5 11.5 -12.5 17.5c0 4.66699 2.33301 13.334 7 26.001c6 15.333 9.33301 24.333 10 27c-32.667 14 -49 31.333 -49 52c0 13.333 7.5 25 22.5 35s29.5 15 43.5 15c34 0 51 -21.667 51 -65z" />
    <glyph glyph-name="less" unicode="&#x3c;" 
 />
    <glyph glyph-name="equal" unicode="=" horiz-adv-x="380" 
d="M359 387c0 -8 -4.5 -14.5 -13.5 -19.5s-17.833 -7.5 -26.5 -7.5l-27 9c-16 3.33301 -42 4 -78 2c-46 -2.66699 -89.667 -2.66699 -131 0c-20.667 1.33301 -37 2 -49 2c-3.33301 0 -7.16602 3 -11.499 9s-6.5 11 -6.5 15c0 8 5.16699 15.167 15.5 21.5
s19.833 9.5 28.5 9.5c-28 0 -2 -2.33301 78 -7c42 -2.66699 65.667 -3.66699 71 -3l126 10c5.33301 0.666992 10.666 -4.5 15.999 -15.5s8 -19.5 8 -25.5zM320 215c-14.667 -9.33301 -23.667 -14.001 -27 -14.001l-13 1c-4 0 -13 0.333008 -27 1l-41 1
c-7.33301 0 -31 -1.33301 -71 -4l-71 -5c-8.66699 -0.666992 -17.667 2.33301 -27 9s-14 14.334 -14 23.001c0 6 4.16699 12.333 12.5 19s15.5 10 21.5 10h161c7.33301 0 18.5 1.16699 33.5 3.5s26.167 3.5 33.5 3.5c10 0 19.667 -4.66699 29 -14v-34z" />
    <glyph glyph-name="A" unicode="A" horiz-adv-x="590" 
d="M632 66c-9.33301 -13.333 -25.6631 -26.9961 -48.9961 -40.9961c-36 -22 -60.667 -38 -74 -48l-164 -119c-12 0 -25 5 -39 15c-1.33301 8 3.66699 16.333 15 25l32 21c19.333 16 49.666 38.667 90.999 68c-0.666992 2 -15.334 72.667 -44.001 212
c-8.66699 8.66699 -33.667 16.667 -75 24c-34 6 -61.333 9 -82 9c-2.66699 0 -6.83398 -0.5 -12.501 -1.5s-9.83398 -1.5 -12.501 -1.5c-9.33301 -48.667 -14 -79.667 -14 -93c0 -11.333 22.167 -25.833 66.5 -43.5s66.5 -33.167 66.5 -46.5c0 -20 -12.667 -30 -38 -30
c-1.33301 0 -9.66602 5 -24.999 15s-25.333 15.667 -30 17c-42 12.667 -83.667 26 -125 40c-65.333 22 -98 40.333 -98 55c0 8 5 14.667 15 20s19.667 8 29 8c3.33301 0 15.833 -5 37.5 -15s33.5 -16.333 35.5 -19c7.33301 5.33301 12 18.666 14 39.999
c3.33301 30 5.33301 47.333 6 52c-5.33301 2 -30 5.66699 -74 11c-32 4 -56 11.667 -72 23v19c20 14.667 33.333 22 40 22c12 0 29.833 -3.5 53.5 -10.5s41.5 -10.5 53.5 -10.5c8 21.333 18.333 81.666 31 180.999l25 192c0 1.33301 2.33301 22.666 7 63.999
c6.66699 30.667 20.334 46 41.001 46c4 0 14.667 -3.5 32 -10.5s27.333 -11.833 30 -14.5c-1.33301 -2.66699 -2 -7.33398 -2 -14.001c0 -53.333 25.667 -153.333 77 -300c16 -44.667 33.333 -107.667 52 -189c1.33301 -4.66699 8 -38 20 -100
c8 -40.667 18.667 -75.334 32 -104.001c9.33301 2 25.666 12.667 48.999 32s39 29 47 29c11.333 0 19.666 -2.33301 24.999 -7c0 -5.33301 2.33301 -12.666 7 -21.999zM377.003 278.004v16.001l-105 354c-5.33301 -28.667 -12.333 -78.334 -21 -149.001
c-8 -64.667 -14.333 -105.667 -19 -123c-6.66699 -24 -10 -44.333 -10 -61v-37h155z" />
    <glyph glyph-name="B" unicode="B" horiz-adv-x="500" 
d="M480 145c0 -11.333 -5.66797 -25.667 -17.001 -43c-4 -18 -16.333 -34.333 -37 -49l-57 -33l-112 -68c-3.33301 0 -8.5 -1 -15.5 -3s-12.167 -3 -15.5 -3c-24 0 -46.667 11.667 -68 35c8 14.667 12 25.334 12 32.001c0 2.66699 -1 7 -3 13s-3 10.333 -3 13v84
c0 18 -4.66699 58.333 -14 121c-11.333 -4 -22.333 -6 -33 -6c-6 0 -14.333 3.33301 -25 10s-16 12.667 -16 18c0 23.333 15.667 35 47 35c9.33301 0 17.333 -1 24 -3c1.33301 2.66699 2 8.33398 2 17.001c0 -22 -5.33301 36.667 -16 176c-6 77.333 -12 142 -18 194
c-10 8 -24 12 -42 12c-2 0 -5.16699 -0.666992 -9.5 -2s-7.83301 -2 -10.5 -2c-16 0 -27.667 12 -35 36c20 14.667 34.333 22 43 22l30 -8c20 -5.33301 39 -8 57 -8c102.667 -19.333 178.334 -44 227.001 -74c68 -42 102 -101 102 -177
c0 -32.667 -26.333 -72.334 -79 -119.001c-42 -37.333 -81.333 -65 -118 -83c34 -0.666992 74.333 -14.667 121 -42c52.667 -30.667 79 -62.334 79 -95.001zM409.999 496.999c0 49.333 -27 91.667 -81 127c-40.667 26.667 -88 45.667 -142 57v-367
c42.667 -2 90.5 17.5 143.5 58.5s79.5 82.5 79.5 124.5zM409.999 136c0 28 -22.667 52 -68 72c-38 16.667 -74 25 -108 25c-8.66699 0 -15 -0.666992 -19 -2c0 -6 0.666992 -14.833 2 -26.5s2 -20.5 2 -26.5v-87c0 -42 5.33301 -69 16 -81
c116.667 47.333 175 89.333 175 126z" />
    <glyph glyph-name="C" unicode="C" horiz-adv-x="373" 
d="M374 599c0 -21.333 -0.998047 -35.666 -2.99805 -42.999c-4.66699 -18 -15.334 -27 -32.001 -27s-25 27 -25 81v11c0 31.333 -1.33301 53.333 -4 66c-6 28.667 -19.333 43 -40 43c-16 0 -35.667 -12.667 -59 -38c-68 -74 -109 -175.333 -123 -304
c-6 -56.667 -11 -111.334 -15 -164.001c-1.33301 -20 -1.33301 -43.333 0 -70c3.33301 -55.333 10.666 -104 21.999 -146c20 -72 50 -108 90 -108c26 0 47.667 41 65 123c13.333 62.667 20 114.334 20 155.001c0 4.66699 -2 12.834 -6 24.501s-6 19.834 -6 24.501
c0 6.66699 5.83301 13.667 17.5 21s21.167 11 28.5 11s13.666 -4.33301 18.999 -13c3.33301 -6.66699 5 -12.334 5 -17.001c0 -81.333 -7.66699 -153.333 -23 -216c-27.333 -111.333 -74.333 -167 -141 -167c-9.33301 0 -26 10 -50 30
c-17.333 14.667 -28.666 25.334 -33.999 32.001c-23.333 29.333 -39 64.666 -47 105.999c-1.33301 7.33301 -5 39.666 -11 96.999c-2.66699 27.333 -4 42.666 -4 45.999l9 201c2 38.667 11.333 87 28 145c20.667 70 46.667 128.667 78 176c44.667 66.667 95 100 151 100
c60 0 90 -60 90 -180z" />
    <glyph glyph-name="D" unicode="D" horiz-adv-x="607" 
d="M574 370c0 -48 -15.335 -100.332 -46.002 -156.999c-27.333 -50.667 -60.666 -94.334 -99.999 -131.001c-24 -22 -68.667 -49 -134 -81c-58.667 -28.667 -91.667 -43 -99 -43c-3.33301 0 -15.333 3.33301 -36 10c-1.33301 5.33301 -4.66602 12.666 -9.99902 21.999
c10 15.333 15 27 15 35c0 16 -2.5 39.667 -7.5 71s-7.5 55 -7.5 71v81c0 1.33301 -0.5 3.16602 -1.5 5.49902s-1.5 4.16602 -1.5 5.49902l-21 234c0 8.66699 -4.33301 33.334 -13 74.001c-9.33301 44 -17.333 66 -24 66c-2.66699 0 -7.16699 -1 -13.5 -3
s-10.833 -3 -13.5 -3s-9.5 2.33301 -20.5 7s-18.167 7.33398 -21.5 8.00098v20c24 16.667 40 25 48 25c2.66699 0 7.5 -1 14.5 -3s11.833 -3 14.5 -3c4.66699 0 11.667 0.5 21 1.5s16.333 1.5 21 1.5c118 0 215.667 -22.333 293 -67
c95.333 -55.333 143 -137.666 143 -246.999zM516.998 355.001c0 79.333 -28.999 144.669 -86.999 196.002c-55.333 48.667 -123.333 73 -204 73c8 0 -11.333 2.66699 -58 8c0 -2 -0.666992 -5.66699 -2 -11s-2 -9 -2 -11c0 -18 5.33301 -63.667 16 -137
c3.33301 -20.667 8.66602 -60.334 15.999 -119.001c2 -26.667 5.66699 -79.334 11 -158.001c0.666992 -12 7 -67 19 -165c131.333 44 219.333 124.333 264 241c18 47.333 27 75 27 83z" />
    <glyph glyph-name="E" unicode="E" horiz-adv-x="605" 
d="M605 608c0 -6 -1.99414 -12.4971 -5.99414 -19.4971s-8.66699 -10.5 -14 -10.5c-8.66699 0 -21 6.33301 -37 19c0 2.66699 0.333008 15.667 1 39c1.33301 46.667 -1.66699 74.334 -9 83.001l-184 -35l-153 -23c0 -8.66699 -1 -20.667 -3 -36
c-2.66699 -17.333 -4.33398 -29.333 -5.00098 -36l-22 -391c-0.666992 -10.667 1.33301 -25.334 6 -44.001c77.333 10.667 116 23 116 37c0 33.333 -3 58 -9 74l-9 24c0 9.33301 10.333 16.666 31 21.999c10 0 19.667 -3.33301 29 -10c0 -1.33301 4 -91.333 12 -270
c0 -6.66699 -2.5 -14.334 -7.5 -23.001s-10.833 -13 -17.5 -13c-5.33301 0 -12.833 2.5 -22.5 7.5s-14.167 9.83301 -13.5 14.5c0 7.33301 0.666992 18.666 2 33.999s2 26.666 2 33.999c0 19.333 -3 33.666 -9 42.999c-32 -4.66699 -67.667 -13.334 -107 -26.001
c1.33301 -60.667 3.66602 -116.667 6.99902 -168c1.33301 -20.667 2 -36 2 -46c3.33301 -1.33301 7.66602 -2 12.999 -2c14.667 0 36.167 3.83301 64.5 11.5s49.833 11.5 64.5 11.5h179c8 0 17.333 4 28 12l4 111c1.33301 33.333 0 66 -4 98c-5.33301 16 -8 23 -8 21
c0 10 16 18.667 48 26c12 0 18 -19 18 -57c0 -12 -0.666992 -25 -2 -39l-2 -21c0.666992 -13.333 0.666992 -34.666 0 -63.999s-1 -51.666 -1 -66.999c0 -4 2 -10.667 6 -20s6 -15.666 6 -18.999c0 -9.33301 -3.33301 -17.5 -10 -24.5s-14.667 -10.5 -24 -10.5
c5.33301 0 -5.33398 2.66699 -32.001 8c-8.66699 0.666992 -60.667 1 -156 1c-36 0 -89 -7.16699 -159 -21.5s-123 -21.5 -159 -21.5c-28 0 -41.667 12 -41 36c16 14.667 27.667 22 35 22c5.33301 0 13.666 -1 24.999 -3s19.666 -3 24.999 -3c4 0 10.167 2.83301 18.5 8.5
s12.5 10.5 12.5 14.5v188c-5.33301 7.33301 -12 11 -20 11c-3.33301 0 -8.33301 -1 -15 -3s-11.667 -3 -15 -3c-20.667 0 -36.667 7.33301 -48 22c5.33301 15.333 19.333 24.333 42 27c26 3.33301 42.667 9 50 17c-1.33301 12 -2 25 -2 39c0 16.667 1.33301 42 4 76
s4 59.333 4 76v175c0 6.66699 2.66699 18 8 34l4 50c0 2 -1.5 7.66699 -4.5 17s-4.5 16 -4.5 20c-12 0 -30.667 -1 -56 -3l-38 -3c-5.33301 -0.666992 -11.833 1.83301 -19.5 7.5s-11.5 11.167 -11.5 16.5c0 3.33301 2.5 7.5 7.5 12.5s9.16699 7.5 12.5 7.5
c38.667 2 143.667 19 315 51c84.667 16 147.667 29 189 39l16 8c9.33301 4.66699 16.333 7 21 7c21.333 0 32 -59 32 -177z" />
    <glyph glyph-name="F" unicode="F" horiz-adv-x="530" 
d="M523 385c0 -9.33301 -3.5 -18.0049 -10.5 -26.0049s-15.167 -12 -24.5 -12c-26 0 -39 10.667 -39 32c0 6.66699 1.33301 17.334 4 32.001s3.66699 25.667 3 33l-6 106v87c0 6 -2 21 -6 45s-7 37 -9 39c-18.667 -1.33301 -60.667 -12.333 -126 -33
c-13.333 -2 -22.333 -4 -27 -6c-10.667 -3.33301 -18.334 -8.33301 -23.001 -15c0 -14 -1.33301 -35 -4 -63l-3 -425c2.66699 -1.33301 8.33398 -2 17.001 -2c10 0 24.667 5.66699 44 17v72c-4 6 -8 17.667 -12 35c15.333 14.667 27 22 35 22c12 0 23.333 -7.66699 34 -23
c-0.666992 -8 0.666016 -37 3.99902 -87l6 -89c0.666992 -9.33301 -2.5 -18 -9.5 -26s-15.167 -12 -24.5 -12c-26 0 -38.333 17.667 -37 53l-55 -8c-4.66699 -1.33301 -7 -3.66602 -7 -6.99902c-4 -27.333 -6.33301 -55.666 -7 -84.999
c-0.666992 -30 1.66602 -66.667 6.99902 -110c23.333 2.66699 64 18.334 122 47.001c2.66699 0 8.33398 -2 17.001 -6s13.334 -6.66699 14.001 -8c2.66699 -5.33301 4 -12.666 4 -21.999c0 -4 -2.16699 -8.83301 -6.5 -14.5s-8.5 -8.83398 -12.5 -9.50098l-85 -17l-120 -38
c-78 -24.667 -123.333 -37 -136 -37c-6.66699 0 -17.334 7.66699 -32.001 23c0.666992 18.667 20.334 30 59.001 34c14.667 1.33301 36 5.33301 64 12c34.667 8 52 16 52 24v197c-6 0 -14.667 -1.16699 -26 -3.5s-20 -3.5 -26 -3.5c-13.333 0 -25 7.66699 -35 23
c10 18 24.667 28 44 30l48 4c3.33301 8 6.66602 37 9.99902 87c3.33301 44.667 5 76.334 5 95.001c0 24.667 -1 64.667 -3 120c-2.66699 51.333 -3.66699 91.333 -3 120c0 12 -0.333008 33.333 -1 64c-11.333 -2 -37.333 -11.333 -78 -28l-63 -26
c-7.33301 0 -21 8.33301 -41 25c0 10.667 48.333 32.667 145 66l181 60l107 41c22 0 37.667 -4.66699 47 -14c-3.33301 -2.66699 -5 -10 -5 -22c0 -13.333 2 -33 6 -59s6 -45.667 6 -59c-0.666992 -75.333 1.33301 -146 6 -212c0.666992 -2 2.83398 -8.16699 6.50098 -18.5
s5.5 -16.5 5.5 -18.5z" />
    <glyph glyph-name="G" unicode="G" horiz-adv-x="440" 
d="M471 393c0 -12 -8.66309 -21.999 -25.9961 -29.999c-14 -6.66699 -28 -10.334 -42 -11.001c-0.666992 -0.666992 -10.334 -2 -29.001 -4c-6.66699 -0.666992 -11.667 -4.66699 -15 -12c-2 -4.66699 -5.66699 -50.334 -11 -137.001
c-12.667 -211.333 -61.667 -317 -147 -317c-20.667 0 -43.334 12.667 -68.001 38c-16 16 -28.667 32.333 -38 49c-20 34.667 -36.333 87 -49 157c-10.667 59.333 -16 115.333 -16 168c0 72.667 20.333 160.667 61 264c48 122.667 102.667 184 164 184
c42 0 74.667 -21 98 -63c18 -32 27 -65.667 27 -101c0 -28 -6 -55.667 -18 -83c-14.667 -34 -34 -51 -58 -51c-28.667 0 -52.5 11.167 -71.5 33.5s-28.5 48.166 -28.5 77.499c0 33.333 14.667 50 44 50c16 0 24 -6.66699 24 -20c0 -6 -1.5 -15.167 -4.5 -27.5
s-4.5 -21.5 -4.5 -27.5c0 -16.667 11 -25 33 -25c8 0 14.667 11 20 33c4 16 6 28.667 6 38c0 18.667 -5 41 -15 67c-14 36 -30.667 54 -50 54c-28.667 0 -60.334 -37.667 -95.001 -113c-51.333 -112 -77 -216.667 -77 -314c0 -66.667 9.33301 -130.667 28 -192
c25.333 -83.333 61 -130.333 107 -141c13.333 13.333 27.666 39.333 42.999 78c6.66699 16 14 52.333 22 109c8.66699 54 13 91.333 13 112v94l-8 11c-8 -1.33301 -33 -6.66602 -75 -15.999c-33.333 -7.33301 -51.333 -11 -54 -11c-7.33301 0 -19.333 8.33301 -36 25
c4.66699 12.667 11 20 19 22c18.667 4.66699 56.667 12 114 22c43.333 7.33301 78.333 17.333 105 30c14 6.66699 34.333 10 61 10c8.66699 0 18.667 -3.16699 30 -9.5s17 -13.166 17 -20.499z" />
    <glyph glyph-name="H" unicode="H" horiz-adv-x="535" 
d="M573 -148c0 -7.33301 -3.16699 -14.0039 -9.5 -20.0039s-13.166 -9 -20.499 -9c-3.33301 0 -14.666 1.33301 -33.999 4c-8.66699 1.33301 -15.667 2 -21 2c-79.333 2 -122.666 3.33301 -129.999 4c-64.667 4.66699 -103.667 14.334 -117 29.001c18 18 34.667 27 50 27
l29 -5c15.333 -2.66699 30.333 -4 45 -4c2 2.66699 5 7.33398 9 14.001c-3.33301 58 -5 108 -5 150c0 57.333 3 99.666 9 126.999l3 109v74c-8.66699 3.33301 -16.667 5 -24 5l-177 -46c-3.33301 -3.33301 -5 -7.66602 -5 -12.999v-290c0 -2.66699 1.33301 -5 4 -7l4 -5
c7.33301 2 19.333 7 36 15c11.333 5.33301 20 8 26 8c5.33301 0 13.333 -4 24 -12c0.666992 -24 -3.33301 -38 -12 -42c-21.333 -0.666992 -53.166 -8.16699 -95.499 -22.5s-74.833 -21.5 -97.5 -21.5c-31.333 0 -47 7.66699 -47 23c0 14 14 22.667 42 26
c11.333 1.33301 30 3 56 5c0 4.66699 0.833008 11.834 2.5 21.501s2.5 16.834 2.5 21.501v276c-46 -6 -66.333 -9 -61 -9c-3.33301 0 -9.16602 3 -17.499 9s-12.5 10.667 -12.5 14c0 18.667 24.667 28 74 28c10 0 15.667 -0.666992 17 -2v293c-6.66699 4.66699 -14 7 -22 7
c-4.66699 0 -11.167 -1.33301 -19.5 -4s-14.5 -4 -18.5 -4c-6.66699 0 -15 2.83301 -25 8.5s-15 11.5 -15 17.5c0 5.33301 4.5 11 13.5 17s16.5 9 22.5 9c5.33301 0 13.5 -0.5 24.5 -1.5s19.167 -1.5 24.5 -1.5c14.667 0 36.834 2.83301 66.501 8.5s51.834 8.5 66.501 8.5
c10.667 0 20 -3 28 -9v-27c0 -10.667 -10.667 -16 -32 -16c-2.66699 0 -6.83398 0.5 -12.501 1.5s-9.83398 1.5 -12.501 1.5c-27.333 0 -41 -10 -41 -30v-14c0 2 0.333008 -3.33301 1 -16l12 -228c26.667 6 55.334 14 86.001 24
c5.33301 0.666992 19.666 3.33398 42.999 8.00098c17.333 3.33301 31.666 9 42.999 17c1.33301 1.33301 7.33301 3.66602 18 6.99902c7.33301 2 11.333 5.33301 12 10c0.666992 6 0.666992 16 0 30c-0.666992 12 -1.33398 19.333 -2.00098 22v186
c0 -8 0.666992 0.666992 2 26c0.666992 13.333 0.666992 25.333 0 36c-18.667 10 -38.334 15 -59.001 15h-13c-20 0 -36.667 10.667 -50 32c16 10.667 30.333 17 43 19l139 -26c29.333 0 45.666 -0.333008 48.999 -1c27.333 -2.66699 41 -10 41 -22
c0 -7.33301 -3.66699 -14.5 -11 -21.5s-14.666 -10.5 -21.999 -10.5c-1.33301 0 -18.666 3.33301 -51.999 10c-2.66699 0.666992 -5.66699 -1.33301 -9 -6c-2 -38 -3 -109.333 -3 -214v-121l-9 -275c0 -10 -2 -26.333 -6 -49c-1.33301 -3.33301 -2 -10 -2 -20
c0 -16 1.66699 -40 5 -72c5.33301 -52 10.666 -79.667 15.999 -83c5.33301 0 13.166 -0.666992 23.499 -2s18.166 -2 23.499 -2c6.66699 0 16.5 1 29.5 3s22.833 3 29.5 3c18 0 27 -9.33301 27 -28z" />
    <glyph glyph-name="I" unicode="I" horiz-adv-x="360" 
d="M386 17c0 -8 -4.66504 -14.334 -13.998 -19.001s-18.333 -7 -27 -7c-16 0 -65.333 2.33301 -148 7l-159 9c-6 0 -14.667 4.33301 -26 13v19c1.33301 0.666992 6.33301 4 15 10s14.334 9 17.001 9c32 0 78.333 -4 139 -12c3.33301 3.33301 5 10 5 20v313l10 252l-6 45
c-6.66699 3.33301 -12 5 -16 5c-8.66699 0 -21.5 -1 -38.5 -3s-29.833 -3 -38.5 -3s-18.167 3.66699 -28.5 11s-15.5 15 -15.5 23c0 6 5.66699 11.667 17 17c9.33301 4.66699 17.666 7 24.999 7s18.5 -1 33.5 -3s26.167 -3 33.5 -3c5.33301 0 22 1 50 3l49 3
c5.33301 0 14.333 1 27 3s22 3 28 3c6.66699 0 14.167 -2.33301 22.5 -7s12.5 -10 12.5 -16c0 -8.66699 -3.66699 -17.167 -11 -25.5s-15.333 -12.5 -24 -12.5c-4.66699 0 -11.834 1 -21.501 3s-16.834 3 -21.501 3c-18.667 0 -28 -9.66699 -28 -29
c0 -8 1.66699 -21.167 5 -39.5s4.66602 -32.5 3.99902 -42.5c-1.33301 -11.333 -3.66602 -33.666 -6.99902 -66.999l-3 -267c-6 -48 -9 -70.333 -9 -67c0 -20 1.66699 -43.667 5 -71c4.66699 -38.667 11 -58 19 -58c5.33301 0 21.333 1 48 3l47 3
c8 0.666992 15 -2.5 21 -9.5s9 -14.5 9 -22.5z" />
    <glyph glyph-name="J" unicode="J" horiz-adv-x="495" 
d="M465 175c0 -54 -13.667 -105.999 -41 -155.999c-32.667 -60 -76 -97 -130 -111c-28.667 -7.33301 -40.667 -11 -36 -11c-3.33301 0 -12.333 6 -27 18s-23.667 19 -27 21c-50 30 -92.333 74 -127 132c-19.333 32 -43 85 -71 159c3.33301 10 10.333 18.833 21 26.5
s21.334 11.5 32.001 11.5c2 0 8.33301 -3.33301 19 -10c5.33301 -46.667 14 -88.334 26 -125.001c4.66699 -14 27.667 -44.667 69 -92c48.667 -55.333 84.667 -83 108 -83c27.333 0 54 20.667 80 62c22.667 36 34.667 64.667 36 86l10 130
c3.33301 42.667 -7.33398 128 -32.001 256l-27 136c-3.33301 16 -12 41.667 -26 77l-18 45c0 4.66699 4.5 10.667 13.5 18s16.167 11 21.5 11c2.66699 0 7.16699 -1.16699 13.5 -3.5s11.166 -3.5 14.499 -3.5c38.667 -154.667 63.334 -260.667 74.001 -318
c16 -87.333 24 -179.333 24 -276z" />
    <glyph glyph-name="K" unicode="K" horiz-adv-x="658" 
d="M668 640c0 -7.33301 -2.66699 -14.499 -8 -21.499s-11.666 -10.5 -18.999 -10.5c-12.667 0 -23.334 5.66699 -32.001 17c-2.66699 4 -9.33398 15 -20.001 33l-260 -307c8 -30 24.333 -64.667 49 -104l63 -100c21.333 -42.667 53.333 -101.667 96 -177
c9.33301 4 27 17.333 53 40c23.333 20 39.333 30 48 30c16.667 0 25 -9 25 -27c0 -4.66699 -3.33301 -11.334 -10 -20.001c-31.333 -15.333 -75.666 -46.333 -132.999 -93l-49.5 -48.5c-27.667 -27 -43.834 -40.5 -48.501 -40.5c-19.333 0 -29 8 -29 24
c0 5.33301 7.33301 15 22 29c8 8 16.667 16 26 24c4.66699 4 14 11 28 21c8.66699 6 13 14.667 13 26c0 31.333 -31.333 99 -94 203l-103 166c-40.667 -46 -64.334 -74.333 -71.001 -85c-12.667 -20.667 -19 -46.667 -19 -78c0 -25.333 2 -44.333 6 -57
c10.667 0 26.5 4.66699 47.5 14l31.5 14c21.333 0 32 -7.33301 32 -22c0 -20.667 -7.66699 -32.667 -23 -36c-89.333 -20.667 -171.666 -38.334 -246.999 -53.001c-28 4 -42 12.333 -42 25c0 15.333 12.333 25 37 29l48 2c10 1.33301 25.333 5 46 11
c4.66699 6.66699 9 33.334 13 80.001c3.33301 38 5 66.333 5 85v501c-4 6.66699 -15 10 -33 10c-4.66699 0 -11.167 -0.5 -19.5 -1.5s-14.833 -1.5 -19.5 -1.5c-1.33301 0 -12 5 -32 15v21c15.333 10.667 26.333 15.667 33 15l152 -12
c6 -0.666992 14.5 0.166016 25.5 2.49902s18.833 3.5 23.5 3.5l27 -9v-15c0 -6 -3.5 -12.333 -10.5 -19s-13.5 -10 -19.5 -10l-13 4c-8.66699 2.66699 -26 4.66699 -52 6l-16 -346c-0.666992 -16.667 1 -55 5 -115c32.667 32.667 99.667 107.334 201 224.001
c106 122 159 189 159 201c0 2 -5.66699 11 -17 27s-17 25 -17 27c0 14 17.333 22.333 52 25c2.66699 0 7 -3.33301 13 -10c2.66699 -6 28.334 -51.333 77.001 -136z" />
    <glyph glyph-name="L" unicode="L" horiz-adv-x="479" 
d="M501 -168c-4 -11.333 -7.66797 -18.9951 -11.001 -22.9951s-10.333 -6 -21 -6c-18 0 -27 9.33301 -27 28c0 4 0.333008 9.83301 1 17.5s1 13.5 1 17.5c0 29.333 -13 44.666 -39 45.999c-2 0 -17.667 1 -47 3c-34.667 9.33301 -69.667 12.666 -105 9.99902l-188 -14
c-3.33301 2 -17.333 8 -42 18v15c22 13.333 37.667 20 47 20c4.66699 0 11.167 -0.833008 19.5 -2.5s14.833 -2.5 19.5 -2.5c12.667 0 19.667 5 21 15c5.33301 38 10.666 93 15.999 165c4.66699 60.667 7 95 7 103v180c0 99.333 3 182 9 248
c-0.666992 1.33301 -1 8.33301 -1 21c0 13.333 0.333008 32.333 1 57c-6.66699 2 -20.667 0.666992 -42 -4l-36 -8c-5.33301 0 -11.333 2.83301 -18 8.5s-10 11.167 -10 16.5c0 9.33301 15.667 17.666 47 24.999c2 0 4.5 -0.5 7.5 -1.5s5.5 -1.5 7.5 -1.5
c6 0 17.167 3.66699 33.5 11s27.5 11 33.5 11c23.333 0 35 -8.33301 35 -25l-8 -32v-43c0 21.333 -1.33301 -10.334 -4 -95.001c-1.33301 -42 -2 -84 -2 -126v-64l-3 -181l-19 -245c-1.33301 -18 6.33398 -27 23.001 -27c4.66699 0 13.667 0.666992 27 2
c10.667 1.33301 19.334 1.66602 26.001 0.999023l168 -14c10.667 -0.666992 16 9.33301 16 30v35c-0.666992 4 -1 4.33301 -1 1c0 30 10.667 45 32 45c10.667 0 16.667 -16.667 18 -50c2 -40.667 4.66699 -64 8 -70v-115z" />
    <glyph glyph-name="M" unicode="M" horiz-adv-x="752" 
d="M805 -136c0 -26.667 -12.6689 -39.9971 -38.002 -39.9971c-2 0 -6.83301 1.83301 -14.5 5.5s-12.834 5.5 -15.501 5.5l-138 23c-52 8.66699 -83.667 20.334 -95 35.001c10.667 23.333 27 35 49 35c4 0 12.833 -2.33301 26.5 -7s22.834 -7.33398 27.501 -8.00098
c-5.33301 83.333 -11 206.666 -17 369.999c-3.33301 90.667 -11 181 -23 271l-119 -695c-7.33301 -6.66699 -21.333 -14.334 -42 -23.001c-22.667 2 -35 8.66699 -37 20c-20 117.333 -47.333 240.333 -82 369l-100 365c-1.33301 -14 -1 -37 1 -69l3 -47v-208
c0 -108.667 4.33301 -177 13 -205c17.333 -7.33301 35.666 -12.666 54.999 -15.999c24 -2 36 -8.33301 36 -19c0 -27.333 -8.66699 -41 -26 -41c-14 0 -59.667 14.667 -137 44c-82 31.333 -123 52.666 -123 63.999c0 7.33301 6.33301 14.5 19 21.5s23 10.5 31 10.5
c2.66699 0 13.334 -5.66699 32.001 -17c22 -13.333 37.333 -22 46 -26l3 397l-13 212c-51.333 -10.667 -81 -16 -89 -16c-10.667 0 -23.334 6.33301 -38.001 19v20c19.333 14.667 34 22 44 22c4.66699 0 11.334 -0.5 20.001 -1.5s15.334 -1.5 20.001 -1.5
c12 0 26.667 4 44 12s28 12 32 12c3.33301 0 8.33301 -1 15 -3s11.667 -3 15 -3c16 0 39.167 5.66699 69.5 17s49.833 17 58.5 17c4.66699 0 10 -2.66699 16 -8s9 -10.333 9 -15c0 -20.667 -18.333 -34.334 -55 -41.001c-42 -7.33301 -65 -14 -69 -20v-19
c0 -1.33301 11.333 -45.333 34 -132c15.333 -58 34 -123.333 56 -196c2.66699 -8 21.334 -76 56.001 -204l3 -11c8 -34.667 21.667 -91 41 -169c23.333 76 40 152 50 228c4.66699 42 15.667 122.667 33 242l37 239c-14 4.66699 -36.333 8.5 -67 11.5s-53 7.16699 -67 12.5
c-4 1.33301 -9 5.33301 -15 12s-9 12 -9 16c0 10.667 6.33301 18.667 19 24l26 8l281 -74c17.333 1.33301 26 -8.66699 26 -30c0 -25.333 -16.667 -38 -50 -38l-22 18c-14 11.333 -27 16.333 -39 15c14.667 -108 25 -207.667 31 -299c3.33301 -52 8.33301 -152.333 15 -301
l2 -73c1.33301 -28.667 4.33301 -53 9 -73c1.33301 -5.33301 24.333 -11.5 69 -18.5s67 -15.5 67 -25.5z" />
    <glyph glyph-name="N" unicode="N" horiz-adv-x="756" 
d="M810 770c0 -8 -3.49609 -15.168 -10.4961 -21.501s-14.5 -9.5 -22.5 -9.5c-4.66699 0 -12.334 2.66699 -23.001 8c-12 0 -29.333 1.33301 -52 4c-10.667 -6 -17 -26.667 -19 -62c-3.33301 -52 -5.66602 -81.333 -6.99902 -88l-3 -138
c-1.33301 -56.667 -9.33301 -143.667 -24 -261c-4.66699 -33.333 -12.667 -96.333 -24 -189l-4 -90c-2 -35.333 -9 -66 -21 -92c-9.33301 -11.333 -23 -18.333 -41 -21c-10.667 0.666992 -17.334 4 -20.001 10c-75.333 186 -174 399.667 -296 641c-4 8 -11 23.667 -21 47
l-39 86l45 -553c3.33301 0 24.666 1.66699 63.999 5l47 4c5.33301 0.666992 10.666 -1.5 15.999 -6.5s8 -10.167 8 -15.5c0 -7.33301 -2.66699 -14.666 -8 -21.999s-11.333 -11 -18 -11h-242c-8 0 -17.667 3 -29 9s-17 12.667 -17 20c0 5.33301 5.16699 11.5 15.5 18.5
s18.5 10.5 24.5 10.5c-6.66699 0 11 -4.66699 53 -14l42 2c-8 18.667 -12.333 41.334 -13 68.001c0 13.333 -0.666992 37 -2 71c-12.667 224 -32.334 393.333 -59.001 508c-5.33301 -0.666992 -17.666 -3 -36.999 -7c-15.333 -3.33301 -27.333 -5 -36 -5
c-6.66699 0 -14.5 2.83301 -23.5 8.5s-13.5 11.5 -13.5 17.5c0 12 24.667 21 74 27c2 0 31.667 2.66699 89 8c48 10.667 70 16 66 16c6 0 12.333 -2 19 -6s10 -8.66699 10 -14c0 -10.667 -5 -19.167 -15 -25.5s-20.5 -9.5 -31.5 -9.5s-16.5 -1.33301 -16.5 -4
c0 -6.66699 22.333 -57.334 67 -152.001c42.667 -89.333 71 -147.333 85 -174c34.667 -63.333 71.667 -138.333 111 -225c47.333 -103.333 83.666 -180 108.999 -230c45.333 389.333 68 653.333 68 792c0 16 -3 31.333 -9 46c-18 2 -35.333 3 -52 3h-36
c-18 0 -33.333 5.33301 -46 16v16c23.333 11.333 36 17 38 17c-30 0 -13.667 -1.33301 49 -4l150 -6c13.333 1.33301 31 2 53 2c18.667 -2 28 -10.333 28 -25z" />
    <glyph glyph-name="O" unicode="O" horiz-adv-x="568" 
d="M568 347c0 -99.333 -25.332 -197.332 -75.999 -293.999c-58.667 -112 -130.334 -168 -215.001 -168c-38 0 -77.333 10.333 -118 31c-98 50 -147 159.667 -147 329c0 54.667 16.333 128 49 220c31.333 89.333 64 157.333 98 204c28.667 40 57.167 67.833 85.5 83.5
s65.833 23.5 112.5 23.5c2.66699 0 8 -1.83301 16 -5.5s13 -5.83398 15 -6.50098c28 -7.33301 44.333 -12.333 49 -15c18 -6.66699 32.333 -15.667 43 -27c32.667 -33.333 56.667 -95.333 72 -186c10.667 -62.667 16 -125.667 16 -189zM511.001 336.001
c0 63.333 -5.33398 124.332 -16.001 182.999c-13.333 72.667 -30.333 122 -51 148c-27.333 34 -73.666 51 -138.999 51c-73.333 0 -141.333 -100.667 -204 -302c-22.667 -72.667 -34 -128.667 -34 -168c0 -52 6.66699 -101 20 -147c18.667 -64 47.667 -106 87 -126
c50 -25.333 84.333 -38 103 -38h20c61.333 0 114.333 54.333 159 163c36.667 88.667 55 167.334 55 236.001z" />
    <glyph glyph-name="P" unicode="P" horiz-adv-x="650" 
d="M647 414c0 -80.667 -46.6689 -154 -140.002 -220c-66 -46.667 -142 -82.334 -228 -107.001c2.66699 -53.333 8.33398 -117.333 17.001 -192c56.667 11.333 94.334 17 113.001 17c19.333 0 29 -8.33301 29 -25c0 -8 -4 -14.833 -12 -20.5s-16.333 -8.5 -25 -8.5
c-16 0 -39.833 -2.5 -71.5 -7.5s-55.5 -7.5 -71.5 -7.5h-80c-8.66699 0 -20 2.66699 -34 8c-19.333 7.33301 -29 15 -29 23c0 7.33301 5.16699 14 15.5 20s19.5 9 27.5 9c-2.66699 0 8 -4 32 -12l44 4c1.33301 6.66699 2 14 2 22l-14 148c-4 1.33301 -11.333 0 -22 -4
c-12.667 -4 -20.667 -6 -24 -6c-8.66699 0 -16.667 8.66699 -24 26c0 12 9.66699 20.667 29 26c11.333 1.33301 23 3 35 5l-57 612c-12.667 0 -31 -2.5 -55 -7.5s-42.333 -7.5 -55 -7.5c-8.66699 0 -19 3 -31 9s-18 12.667 -18 20c0 14 27.667 24.667 83 32
c30.667 4 59.667 6 87 6c136.667 0 246 -25.333 328 -76c99.333 -61.333 149 -156.666 149 -285.999zM586.998 409c0 19.333 -9.66797 62.666 -29.001 129.999c-14.667 50.667 -56 94.667 -124 132c-61.333 33.333 -119.666 50 -174.999 50h-40v-44l58 -545
c2 0 4.66699 0.333008 8 1s6 1 8 1c7.33301 0 38 13 92 39c134.667 64.667 202 143.334 202 236.001z" />
    <glyph glyph-name="Q" unicode="Q" horiz-adv-x="656" 
d="M636 423c0 -84.667 -26.3311 -169.666 -78.998 -254.999s-117 -146.333 -193 -183c5.33301 -15.333 17.666 -37.666 36.999 -66.999c26 -39.333 48 -59 66 -59c3.33301 0 8.33301 -1 15 -3s11.667 -3 15 -3c22.667 0 40.334 13.333 53.001 40c9.33301 19.333 14 39 14 59
c0 12.667 -4.33301 24 -13 34s-19 15 -31 15c-8.66699 0 -16 -3.83301 -22 -11.5s-9 -16.167 -9 -25.5c0 -8 8.66699 -14 26 -18c9.33301 -9.33301 14 -18.666 14 -27.999c0 -4.66699 -5.5 -10.334 -16.5 -17.001s-19.167 -10 -24.5 -10c-12 0 -24.167 5.83301 -36.5 17.5
s-18.5 23.5 -18.5 35.5c0 66 32.667 99 98 99c22.667 0 42.834 -6.66699 60.501 -20s26.5 -31 26.5 -53c0 -34 -9.66699 -67.333 -29 -100c-24.667 -41.333 -56.667 -62 -96 -62h-18c-2.66699 0 -5.5 1.16699 -8.5 3.5s-4.83301 3.5 -5.5 3.5c-13.333 3.33301 -32 11 -56 23
c-16.667 13.333 -25.334 20.666 -26.001 21.999c-13.333 10.667 -30.333 35.667 -51 75c-12.667 24 -20 36 -22 36c-4 0 -10 -0.833008 -18 -2.5s-14 -2.5 -18 -2.5c-84 0 -148.667 25.667 -194 77c-43.333 48.667 -65 115.667 -65 201c0 43.333 10 109.666 30 198.999
c3.33301 16 15 41.667 35 77c36.667 66 66 113.333 88 142c11.333 14.667 26.666 31.667 45.999 51c8 8 31 24.5 69 49.5s60 37.5 66 37.5s14.667 -2.33301 26 -7c17.333 -7.33301 29.666 -12 36.999 -14c61.333 -18.667 100 -37.667 116 -57
c39.333 -48.667 61 -75.667 65 -81c31.333 -47.333 47 -120 47 -218zM586.002 414.001c0 11.333 -2.66895 37.668 -8.00195 79.001s-9.33301 65 -12 71c-27.333 58 -54.333 100.333 -81 127c-37.333 37.333 -82.666 56 -135.999 56c-10 0 -27.5 -7 -52.5 -21
s-40.833 -25.333 -47.5 -34c-7.33301 -10.667 -22.666 -31 -45.999 -61c-42 -54 -75.667 -114.667 -101 -182c-27.333 -71.333 -41 -139.333 -41 -204c0 -58.667 15 -111 45 -157c35.333 -53.333 80.666 -79 135.999 -77l24 1h33
c-5.33301 17.333 -11.666 57.666 -18.999 120.999c-6.66699 57.333 -10 90.666 -10 99.999c0 5.33301 4 10.333 12 15s15 7 21 7c17.333 0 28 -22 32 -66c0 -62 5.66699 -117.667 17 -167c64 33.333 119 88.833 165 166.5s69 152.834 69 225.501z" />
    <glyph glyph-name="R" unicode="R" horiz-adv-x="823" 
d="M860 25c0 -56 -15.9922 -103.999 -47.9922 -143.999c-34.667 -44 -79 -66 -133 -66c-72 0 -138 34.333 -198 103c-44.667 50.667 -78 110.334 -100 179.001c-13.333 40.667 -36 78 -68 112c-36.667 38 -74.334 57 -113.001 57c-1.33301 0 -2 -1.33301 -2 -4v-102
c0 -28 -3.33301 -45.333 -10 -52l5 -68c32.667 6.66699 54.667 13.667 66 21c6 4 16.333 6 31 6c15.333 0 23 -5.33301 23 -16c0 -6.66699 -8.33301 -19 -25 -37c-15.333 -2 -61.333 -15 -138 -39l-104 -32c-4.66699 0 -11.834 2.33301 -21.501 7s-15.834 9 -18.501 13
c17.333 27.333 61.666 47.333 132.999 60c6.66699 59.333 10 102 10 128v101c-2 0.666992 -8 1 -18 1c-6 0 -17.333 5 -34 15c-0.666992 14.667 4.66602 25.334 15.999 32.001c2 0.666992 14 5 36 13l-3 300c0 29.333 -4.66699 44 -14 44c-8.66699 0 -21.334 -1 -38.001 -3
s-29.334 -3 -38.001 -3c-10 0 -23.667 7.33301 -41 22c9.33301 20 35.666 30 78.999 30h44c-3.33301 0 -3 0.333008 1 1h16h19c72 0 135.667 -12.333 191 -37c74.667 -33.333 112 -83.333 112 -150c0 -56.667 -20 -101.334 -60 -134.001
c-25.333 -20.667 -78.333 -47.334 -159 -80.001c8 -8.66699 26.667 -20.667 56 -36c27.333 -14.667 46.666 -29 57.999 -43c28 -35.333 60.333 -101 97 -197c15.333 -40 44.333 -77 87 -111c44.667 -36.667 87.334 -55 128.001 -55c38.667 0 69.667 17.333 93 52
c20.667 30 31 65.333 31 106s-15.667 73 -47 97c-28.667 22 -64 33 -106 33c-26.667 0 -46.834 -9 -60.501 -27s-20.5 -40.667 -20.5 -68c0 -16 7.83301 -30.5 23.5 -43.5s31.834 -19.5 48.501 -19.5c18.667 0 31 5 37 15c5.33301 17.333 8 26.666 8 27.999
c4.66699 10 12 15 22 15c4 0 9.16699 -5 15.5 -15s9.5 -17.333 9.5 -22v-32c-25.333 -22.667 -56 -34 -92 -34c-28.667 0 -55.667 9.33301 -81 28c-28 20 -42 43.667 -42 71c0 96 45 144 135 144c53.333 0 99.333 -13.667 138 -41c42.667 -30.667 64 -71.667 64 -123z
M422.008 510.001c0 50 -26.333 88.333 -79 115c-44 22 -92.667 31.667 -146 29v-328l100 37c39.333 14.667 69 32 89 52c24 24 36 55.667 36 95z" />
    <glyph glyph-name="S" unicode="S" horiz-adv-x="556" 
d="M596 768c-23.333 -21.333 -45.665 -53 -66.998 -95l-31 -64c-18.667 -36.667 -33.667 -55 -45 -55c-6 0 -12.667 2.83301 -20 8.5s-11 11.5 -11 17.5c0 2 7.66699 16 23 42s23 40.333 23 43c0 16 -12 28.667 -36 38c-19.333 8 -38.333 12 -57 12
c-48 0 -91.667 -17 -131 -51c-41.333 -35.333 -62 -76.666 -62 -123.999c0 -51.333 22.333 -96 67 -134l135 -91c54.667 -36.667 90 -79 106 -127c18 -18 27 -51 27 -99c0 -70 -33.667 -129.333 -101 -178c-60 -43.333 -123.333 -65 -190 -65c-56.667 0 -108 25 -154 75
s-69 103.333 -69 160c0 52.667 19.833 97.5 59.5 134.5s86.167 55.5 139.5 55.5c40.667 0 76.5 -17 107.5 -51s46.5 -71.667 46.5 -113c0 -26 -13 -51.167 -39 -75.5s-52 -36.5 -78 -36.5c-3.33301 0 -8 0.5 -14 1.5s-10.667 1.5 -14 1.5c-22.667 0 -42 11 -58 33
c-14.667 20 -22 41.667 -22 65c0 14.667 1 24 3 28c4.66699 10 17 17 37 21c9.33301 -9.33301 15.666 -28.333 18.999 -57c2.66699 -24 10.667 -36 24 -36c2.66699 0 7.16699 -1 13.5 -3s11.166 -3 14.499 -3c16 0 29.333 6.83301 40 20.5s16 28.834 16 45.501
c0 31.333 -12 57.5 -36 78.5s-52 31.5 -84 31.5c-31.333 0 -59.166 -15 -83.499 -45s-36.5 -61.333 -36.5 -94c0 -44.667 18.5 -87.834 55.5 -129.501s77.833 -62.5 122.5 -62.5c50 0 99 18 147 54c52.667 40 79 86 79 138c0 48 -18 92.667 -54 134
c-24.667 28 -65.667 62.667 -123 104c-60 43.333 -101.667 77.666 -125 102.999c-8.66699 9.33301 -16.167 24 -22.5 44s-9.5 37.333 -9.5 52c0 68.667 25.333 125.667 76 171c48.667 44 107.667 66 177 66c43.333 0 83 -13 119 -39c14.667 17.333 24.667 39 30 65
c5.33301 3.33301 15.666 8 30.999 14c6 0 12.833 -3.33301 20.5 -10s12.5 -13 14.5 -19z" />
    <glyph glyph-name="T" unicode="T" horiz-adv-x="576" 
d="M602 753c0 -2.66699 -1.8291 -9.33496 -5.49609 -20.002s-5.83398 -17.667 -6.50098 -21c0 -4 0.333008 -10.333 1 -19s1 -15 1 -19c0 -38.667 -9 -58 -27 -58c-20.667 0 -31 9.33301 -31 28c0 6 1.16699 14.833 3.5 26.5s3.5 20.5 3.5 26.5
c0 17.333 -8.66699 25.333 -26 24l-195 -15v-514l-16 -262c-1.33301 -20 1 -38 7 -54l112 3c4.66699 0 10.334 -3.16699 17.001 -9.5s10 -11.833 10 -16.5c0 -20.667 -12.333 -31 -37 -31c5.33301 0 -5.33398 2.66699 -32.001 8l-158 6c-54.667 2 -92 12 -112 30
c10 22.667 25 34 45 34c7.33301 0 20.166 -3.5 38.499 -10.5s31.166 -10.5 38.499 -10.5c2.66699 0 5.33398 1.33301 8.00098 4c4 13.333 10 26.666 18 39.999c3.33301 1.33301 5 1.66602 5 0.999023v506c0 31.333 1 64 3 98l2 53c-3.33301 0 -5 2.33301 -5 7v61
c0 2.66699 0.833008 4.16699 2.5 4.5s2.5 0.833008 2.5 1.5c0 4.66699 -0.5 11.334 -1.5 20.001s-1.5 15.334 -1.5 20.001c-2 1.33301 -9 2 -21 2l-108 -14c-12 -0.666992 -24 -1.66699 -36 -3c-16.667 -1.33301 -27.667 -4.33301 -33 -9
c2 -15.333 6.66699 -39.666 14 -72.999c0.666992 -4 4.33398 -12.833 11.001 -26.5s10 -21.5 10 -23.5c0 -4 -4 -8.66699 -12 -14s-14 -8 -18 -8c-14.667 0 -23.334 5.66699 -26.001 17l-29 122c-0.666992 2.66699 -3.83398 7.83398 -9.50098 15.501
s-8.5 12.834 -8.5 15.501c0 4.66699 5 10.5 15 17.5s17.667 10.5 23 10.5c2.66699 0 7 -0.833008 13 -2.5s10.333 -2.5 13 -2.5c6.66699 0 16.667 1.66699 30 5c16 4 26.333 6.33301 31 7c91.333 11.333 167.333 19.666 228 24.999l163 12c5.33301 0.666992 14 3.5 26 8.5
s20 7.5 24 7.5c7.33301 0 15.166 -3.33301 23.499 -10s12.5 -13.667 12.5 -21z" />
    <glyph glyph-name="U" unicode="U" horiz-adv-x="647" 
d="M693 712c0 -6 -3.00391 -12.665 -9.00391 -19.998s-12 -11 -18 -11c-10.667 0 -26.667 2 -48 6s-37.333 6 -48 6c-12 0 -19.667 -2.66699 -23 -8c2.66699 -34.667 11.334 -83 26.001 -145c10 -42 16.667 -84.667 20 -128l12 -150c0.666992 -8.66699 1 -20.334 1 -35.001
c0 -54.667 -10 -110.334 -30 -167.001c-32 -90 -86.333 -135 -163 -135c-4 0 -9.83301 1 -17.5 3s-13.5 3 -17.5 3c-29.333 0 -68 15 -116 45c-43.333 27.333 -75.666 54.333 -96.999 81c-16 20 -35.333 58.333 -58 115c-6.66699 16.667 -10 51.667 -10 105
c0 54 6.66699 109.333 20 166c3.33301 14 10 40.333 20 79v17c2 -0.666992 -28.333 -1 -91 -1c-9.33301 0 -22.666 6.33301 -39.999 19c2 16 7.66699 26 17 30c4.66699 2 13.334 3 26.001 3c-26 0 -7.66699 -2.33301 55 -7c54.667 -4 92.334 -6.33301 113.001 -7
c11.333 0.666992 37.666 2 78.999 4c11.333 0.666992 17 -7 17 -23c0 -22.667 -11.667 -34 -35 -34c-6 0 -15.333 1.5 -28 4.5s-22 4.5 -28 4.5c-12.667 0 -20.667 -1.66699 -24 -5c-28.667 -87.333 -43 -171.666 -43 -252.999c0 -71.333 23 -137.333 69 -198
c52 -68.667 116 -103 192 -103c2.66699 0 7.5 1 14.5 3s11.833 3 14.5 3c40 0 68.333 44.667 85 134c9.33301 50 14 98.667 14 146c0 85.333 -17.667 218.333 -53 399c-0.666992 3.33301 -7 14.333 -19 33c-16 0 -39.333 -0.666992 -70 -2l-46 -2
c-22.667 -0.666992 -41 6 -55 20c4 8 12.667 14.833 26 20.5s25 8.5 35 8.5c4 0 9.83301 -0.5 17.5 -1.5s13.5 -1.5 17.5 -1.5l253 6c9.33301 0 18.833 -2.33301 28.5 -7s14.5 -11.334 14.5 -20.001z" />
    <glyph glyph-name="V" unicode="V" horiz-adv-x="488" 
d="M523 753c0 -17.333 -11.333 -26.001 -34 -26.001c-6.66699 0 -16.667 2.16699 -30 6.5s-23 6.5 -29 6.5c-12 0 -18.667 -20 -20 -60l-3 -86c-4 -22 -5.66699 -41.667 -5 -59c2 -36.667 2.66699 -55.334 2 -56.001c-2.66699 -99.333 -11.667 -236.666 -27 -411.999
c-1.33301 -12 -5 -36 -11 -72c-5.33301 -30 -8 -54.333 -8 -73c0 -7.33301 0.333008 -15 1 -23c-2 -10.667 -8 -20.834 -18 -30.501s-20.333 -14.5 -31 -14.5c-13.333 0 -21.666 4 -24.999 12c-4 21.333 -11 52 -21 92c-28.667 82.667 -60.334 191.667 -95.001 327
c-31.333 124 -55 207.333 -71 250c-7.33301 0 -18.5 -1.83301 -33.5 -5.5s-26.167 -5.5 -33.5 -5.5c-6 0 -12.667 2.66699 -20 8s-11 11 -11 17c0 14 25 22.667 75 26c22 1.33301 55 3 99 5l52 3c5.33301 0 10.166 -2.5 14.499 -7.5s6.5 -10.167 6.5 -15.5
c0 -6 -2.83301 -11.333 -8.5 -16s-11.5 -7 -17.5 -7c-5.33301 0 -13.5 1 -24.5 3s-19.167 3 -24.5 3c-7.33301 0 -12.666 -2 -15.999 -6l67 -263c21.333 -84.667 51.333 -183 90 -295c10 30 15 57.667 15 83v67l3 57l2 56c0 3.33301 3 32.333 9 87
c6.66699 61.333 10.667 104 12 128c4 70.667 6 148.334 6 233.001c0 24.667 -1.66699 39.334 -5 44.001c-7.33301 10 -28 15.333 -62 16c-22 0 -36.667 9 -44 27c12 12 25.333 18 40 18l150 -17c56 0 84 -8.33301 84 -25z" />
    <glyph glyph-name="W" unicode="W" horiz-adv-x="857" 
d="M866 -59c0 -16 -7.33301 -26.999 -22 -32.999c-3.33301 -1.33301 -17.666 -4.33301 -42.999 -9c-150 -60 -236.333 -90 -259 -90c-4.66699 0 -10.5 3.16699 -17.5 9.5s-10.5 11.833 -10.5 16.5c0 23.333 17.667 34.666 53 33.999c-6 0 8.33301 3 43 9l-222 484
c-13.333 -45.333 -26 -111.333 -38 -198c-12 -91.333 -23.333 -157.333 -34 -198c3.33301 -3.33301 13.333 -5 30 -5c4 0 9.83301 0.5 17.5 1.5s13.5 1.5 17.5 1.5c6 0 11.333 -2.83301 16 -8.5s7 -11.5 7 -17.5c0 -25.333 -10.667 -38 -32 -38c-4.66699 0 -12 1 -22 3
s-17.333 3 -22 3c-4 0 -11.667 -2.5 -23 -7.5s-19.333 -7.5 -24 -7.5s-11.5 2.66699 -20.5 8s-15.5 8.33301 -19.5 9c-12 3.33301 -28.667 5 -50 5c-24 0.666992 -40.667 1.66699 -50 3c-6 1.33301 -12.333 4.83301 -19 10.5s-10 11.5 -10 17.5
c0 6.66699 5.66699 13.667 17 21s20.666 11 27.999 11c4.66699 0 13.334 -2.5 26.001 -7.5s21.334 -7.5 26.001 -7.5h35l-43 413l-51 265l-48 -32c-32 -21.333 -51.667 -32 -59 -32c-11.333 0 -24.666 8.66699 -39.999 26c4 6 6.33301 12 7 18
c29.333 13.333 79.666 42 150.999 86c66 40.667 101.333 61 106 61c18.667 0 28 -8.33301 28 -25c0 -12.667 -2.66699 -21 -8 -25c-12.667 -4.66699 -28.334 -11.334 -47.001 -20.001c-24 -11.333 -36 -23.666 -36 -36.999c0 -19.333 12.333 -90.333 37 -213
c8 -41.333 15.667 -95.666 23 -162.999c8.66699 -82 15.334 -136.667 20.001 -164c29.333 102 44 203 44 303c0 17.333 -1.33301 29.333 -4 36c1.33301 8 7.5 15.833 18.5 23.5s20.833 11.5 29.5 11.5c9.33301 0 19.666 -6.33301 30.999 -19l100 -231
c38 -88 75 -161.667 111 -221c0.666992 30 7.66699 130.333 21 301c12 154 18 266.333 18 337c0 14 -2 29.333 -6 46c-12 6.66699 -35.667 12.667 -71 18c-21.333 3.33301 -32 13 -32 29c0 17.333 14.333 26 43 26c95.333 -26.667 150.333 -40 165 -40
c6 0 15.167 -0.5 27.5 -1.5s21.5 -1.5 27.5 -1.5c39.333 0 59 -8 59 -24c0 -8 -3.33301 -16.667 -10 -26s-14 -14 -22 -14c8 0 4 2.16699 -12 6.5s-29.333 7.5 -40 9.5c-22 4 -43 6 -63 6c-4.66699 -6 -7.66699 -26 -9 -60l-7 -219c0 -8.66699 -5.66699 -76 -17 -202
c-9.33301 -106 -14 -197.667 -14 -275c0 -4.66699 3.66699 -15.334 11 -32.001l96 39c35.333 14.667 54.666 22 57.999 22c19.333 0 29 -8.66699 29 -26z" />
    <glyph glyph-name="X" unicode="X" horiz-adv-x="632" 
d="M677 24c0 -13.333 -4.33594 -22.3291 -13.0029 -26.9961c-4 -2 -14.333 -4.66699 -31 -8c-23.333 -12.667 -62.666 -41.667 -117.999 -87c-58.667 -48 -99.667 -79.333 -123 -94c-22.667 6.66699 -34 14.334 -34 23.001c0 9.33301 4.66699 16.666 14 21.999
c64.667 37.333 97 61.333 97 72c0 20 -21.667 79.667 -65 179c-34.667 78.667 -57.667 129 -69 151l-116 -312c6 -2.66699 21.667 -10.834 47 -24.501s38 -22.834 38 -27.501c0 -7.33301 -3.16699 -14.833 -9.5 -22.5s-13.166 -11.5 -20.499 -11.5
c-14.667 0 -54.5 21.5 -119.5 64.5s-97.5 69.5 -97.5 79.5c0 18 11.667 27 35 27c4.66699 0 18.334 -9.33301 41.001 -28l39 -32c20 41.333 39.667 91.666 59 150.999c9.33301 28.667 25 71 47 127c20.667 52.667 31 79.667 31 81c0 19.333 -26.667 89 -80 209
c-52.667 118 -80.667 177 -84 177l-64 -2c-50.667 -1.33301 -76 8 -76 28c0 6.66699 4.5 12.667 13.5 18s17.167 8 24.5 8c4.66699 0 12.5 -1.83301 23.5 -5.5s18.5 -5.5 22.5 -5.5l14 1c4 0 14 0.333008 30 1l43 1c7.33301 0 18.5 2.66699 33.5 8s26.167 8 33.5 8
c20.667 0 31 -7.66699 31 -23c0 -16.667 -9.66699 -27 -29 -31c-22.667 -4.66699 -35.667 -7.66699 -39 -9l129 -306l78 180c27.333 63.333 43.333 111.333 48 144c-6 4 -19.333 12 -40 24c-15.333 9.33301 -23 16.666 -23 21.999c3.33301 15.333 18.333 23 45 23
c12 0 68.333 -40 169 -120c0 -28 -10.667 -42 -32 -42c-7.33301 0 -18.666 7.33301 -33.999 22c-18 17.333 -29.667 27 -35 29c-10.667 -20.667 -37.334 -82.334 -80.001 -185.001c-43.333 -104.667 -65 -160.667 -65 -168c0 -5.33301 21.333 -57.666 64 -156.999l90 -209
c8.66699 2.66699 30 17 64 43c31.333 24.667 51.333 37 60 37c22 0 33 -7.66699 33 -23z" />
    <glyph glyph-name="Y" unicode="Y" horiz-adv-x="634" 
d="M634 640c0 -6 -3.5 -12.3301 -10.5 -18.9971s-13.5 -10.334 -19.5 -11.001c-14.667 3.33301 -38.334 18 -71.001 44c-25.333 -64 -50 -132.333 -74 -205c-7.33301 -21.333 -22 -81 -44 -179c0 -2 1.16699 -5.66699 3.5 -11s3.5 -9 3.5 -11
c-2.66699 -40.667 -2.66699 -73.334 0 -98.001c0.666992 -5.33301 3 -29.333 7 -72c0 -5.33301 0.833008 -13 2.5 -23s2.5 -17.667 2.5 -23v-82c0 -3.33301 2.5 -11.833 7.5 -25.5s8.5 -20.834 10.5 -21.501c43.333 3.33301 76.333 5 99 5c4 0 11 -4.66699 21 -14
c-0.666992 -32 -11.667 -48 -33 -48c4 0 -5.33301 3.66699 -28 11l-236 -3c-8 0 -15.167 3.66699 -21.5 11s-9.5 15 -9.5 23c0 6 5.33301 12.333 16 19s19.334 10 26.001 10c46.667 -11.333 72 -17 76 -17c11.333 0 19 1.66699 23 5v15
c0 106.667 -5.33301 186.334 -16 239.001c-12 58.667 -38 121.667 -78 189c-31.333 52 -92.666 140.333 -183.999 265c-40 -32.667 -63 -49 -69 -49c-7.33301 0 -15 2.66699 -23 8s-12 11.666 -12 18.999c10.667 8 47.667 33.667 111 77
c19.333 12.667 37.333 27.334 54 44.001c6 6 14.667 9 26 9c4.66699 0 11 -2.5 19 -7.5s12 -9.5 12 -13.5c0 -12.667 -8.33301 -25 -25 -37c-6.66699 -2.66699 -13.667 -5 -21 -7c-10.667 -4 -16 -9.66699 -16 -17s30.667 -57.333 92 -150l117 -177
c9.33301 26 23.666 83.667 42.999 173c41.333 100 62 161.333 62 184c0 10 -10.667 22.333 -32 37c-42 28.667 -63 45.667 -63 51c0 4 4.66699 8.5 14 13.5s16.333 7.5 21 7.5l51 -27c34 -18.667 55.667 -29 65 -31c6.66699 -11.333 23.667 -23.833 51 -37.5
s41.333 -21.167 42 -22.5c5.33301 -8.66699 8 -15.334 8 -20.001z" />
    <glyph glyph-name="Z" unicode="Z" horiz-adv-x="400" 
d="M404 -150c0 -7.33301 -5.00488 -13.6719 -15.0049 -19.0049s-19 -8 -27 -8c18.667 0 16.334 0.333008 -6.99902 1c-25.333 0.666992 -66.666 1.33398 -123.999 2.00098c-20 0 -49.167 -2.83301 -87.5 -8.5s-67.166 -8.5 -86.499 -8.5c-24.667 0 -37 8.33301 -37 25
c0 2.66699 2.5 8.5 7.5 17.5s8.16699 14.833 9.5 17.5c1.33301 7.33301 4.66602 19.333 9.99902 36l50 164c13.333 44.667 27.333 99.667 42 165c11.333 50.667 35 135.334 71 254.001c32 106 54.333 190.667 67 254l-117 -16c-52.667 -7.33301 -84 -17.666 -94 -30.999
c6.66699 -78 16.667 -130 30 -156c4.66699 -9.33301 7 -15 7 -17c0 -19.333 -9 -29 -27 -29c-6.66699 0 -19.667 8 -39 24c2.66699 20 -2.66602 57.667 -15.999 113l-21 87c0 17.333 13.333 27 40 29c13.333 0.666992 21.333 1.66699 24 3c24 10.667 50 17.667 78 21
c10 1.33301 31.667 4 65 8c6.66699 0.666992 28 6 64 16c29.333 8 45.333 12 48 12c4.66699 0 11 -2.16699 19 -6.5s12 -8.5 12 -12.5c-12 -38.667 -40.333 -136.667 -85 -294c-58 -203.333 -92.667 -334.666 -104 -393.999l-70 -231c12.667 -1.33301 33.334 -1 62.001 1
l43 3c3.33301 0 9.33301 0.833008 18 2.5s15.334 2.5 20.001 2.5h96c3.33301 2.66699 5 12.667 5 30c0 32.667 -4.5 80.5 -13.5 143.5s-13.833 109.833 -14.5 140.5c0 12.667 -0.333008 37.334 -1 74.001c-0.666992 6.66699 -3.66699 17.5 -9 32.5s-8 26.5 -8 34.5
s5 15 15 21s19.333 9 28 9c20 0 30.333 -56 31 -168c0 -38.667 4 -88.667 12 -150c9.33301 -72.667 14.333 -125 15 -157c0.666992 -3.33301 3.16699 -9.83301 7.5 -19.5s6.5 -15.5 6.5 -17.5z" />
    <glyph glyph-name="bracketleft" unicode="[" horiz-adv-x="299" 
d="M307 2c0 -14 -7.33105 -23.998 -21.998 -29.998c-10.667 0.666992 -52 -7.33301 -124 -24l-108 -25c-10 0 -24.333 6.66699 -43 20c8.66699 34.667 13 61 13 79v343l9 276c0 7.33301 4.5 15.166 13.5 23.499s17.167 12.5 24.5 12.5c-14 0 -5.66699 -1.33301 25 -4
c28 -2.66699 51.667 -4.66699 71 -6c46 -2.66699 87.333 -4 124 -4c7.33301 -6 11 -13.667 11 -23c0 -13.333 -5.66699 -21.333 -17 -24c-2.66699 -0.666992 -12.667 -1 -30 -1c9.33301 0 3.66602 1 -17.001 3l-48 4c-28.667 2 -57.334 3 -86.001 3
c-7.33301 -8.66699 -12.333 -34.334 -15 -77.001l-7 -99l4 -462c30 4.66699 71 13.667 123 27c4 1.33301 15.333 5.83301 34 13.5s29.667 11.5 33 11.5c8 0 15.333 -4.16699 22 -12.5s10 -16.5 10 -24.5z" />
    <glyph glyph-name="bracketright" unicode="]" horiz-adv-x="338" 
d="M327 1c0 -14 -18.0029 -25 -54.0029 -33c-2 0 -5.66699 1.66699 -11 5s-9 5 -11 5l-115 3c-9.33301 0 -23.333 -2.16699 -42 -6.5s-32.667 -6.5 -42 -6.5c-6.66699 0 -13.834 2.5 -21.501 7.5s-11.5 10.833 -11.5 17.5c0 8 6.33301 16.5 19 25.5s23.334 13.5 32.001 13.5
h176l-36 562c-0.666992 8 -3.5 16.167 -8.5 24.5s-11.167 12.5 -18.5 12.5c-8.66699 0 -31 -1.33301 -67 -4l-67 -5c-8 -0.666992 -17.167 2.5 -27.5 9.5s-15.5 14.167 -15.5 21.5s5.33301 14.666 16 21.999s20 11 28 11c8.66699 0 20.334 -1.5 35.001 -4.5
s26.334 -4.5 35.001 -4.5c6 0 42.667 5.33301 110 16c25.333 0 40.333 -45.667 45 -137c0.666992 -30.667 3.33398 -90 8.00098 -178c5.33301 -52 15.333 -155.667 30 -311c0.666992 -6 3.16699 -16.667 7.5 -32s6.5 -26.666 6.5 -33.999z" />
    <glyph glyph-name="a" unicode="a" horiz-adv-x="609" 
d="M652 -19c0 -28 -15.334 -41.999 -46.001 -41.999c-2.66699 0 -6.66699 0.5 -12 1.5s-9.33301 1.5 -12 1.5l-219 -52l-37 27c9.33301 21.333 19.333 33.666 30 36.999c64 2 96 10.333 96 25v293c-14 12 -39 18 -75 18c-84 0 -170.333 -11 -259 -33
c-10 -2.66699 -19.833 -12.167 -29.5 -28.5s-14.5 -30.166 -14.5 -41.499c0 -31.333 27.333 -57.666 82 -78.999c40.667 -16 74 -24 100 -24c4.66699 0 11.5 -0.5 20.5 -1.5s15.833 -1.5 20.5 -1.5c34 0 54.333 26 61 78c-5.33301 3.33301 -14.666 5.66602 -27.999 6.99902
c-9.33301 2 -16 3.66699 -20 5c-8 4 -13.333 10 -16 18c9.33301 22.667 25.333 34 48 34c17.333 0 36 -5.33301 56 -16c22.667 -12 34 -25.667 34 -41c0 -19.333 -11.667 -46.333 -35 -81c-26.667 -39.333 -52 -59 -76 -59c-8 0 -20.333 1 -37 3s-29 3 -37 3
c-38.667 0 -85.334 13.667 -140.001 41c-62.667 31.333 -94 66 -94 104c0 71.333 54.333 118.666 163 141.999c49.333 10.667 124 16 224 16c-4 0 11.333 -4.33301 46 -13l-13 197c-3.33301 55.333 -20.333 94 -51 116c-26.667 19.333 -68.667 29 -126 29
c-38 0 -77 -11.667 -117 -35c-47.333 -27.333 -71 -59 -71 -95c0 -28 11 -50.333 33 -67c19.333 -14.667 43.666 -22 72.999 -22c10.667 0 20.834 2.83301 30.501 8.5s14.5 13.167 14.5 22.5c0 4.66699 -2.66699 14 -8 28s-8 23.333 -8 28c0 6.66699 3.5 12.667 10.5 18
s14.167 8 21.5 8c20 0 32.667 -11.667 38 -35c2.66699 -11.333 4 -30.333 4 -57c0 -31.333 -9 -50.333 -27 -57l-81 -12c-106 16 -159 62.667 -159 140c0 83.333 75 142 225 176c11.333 -0.666992 25.333 -0.333984 42 0.999023l25 2
c106 8.66699 168.333 -45.666 187 -162.999c12 -75.333 18 -189.333 18 -342v-61l-1 -62c-0.666992 -52 3.33301 -87.333 12 -106c10.667 0.666992 28.334 5.5 53.001 14.5s42 13.5 52 13.5c5.33301 0 11.5 -3.5 18.5 -10.5s10.5 -13.167 10.5 -18.5z" />
    <glyph glyph-name="b" unicode="b" horiz-adv-x="723" 
d="M732 164c0 -24.667 -1.33105 -41.332 -3.99805 -49.999c-12 -37.333 -60.667 -69.666 -146 -96.999c-56 -18 -98 -27 -126 -27l-164 16c-10.667 0 -17 -5 -19 -15c0.666992 3.33301 1 -5 1 -25c0 -46 7.66699 -69 23 -69c6 0 15.333 0.5 28 1.5s21.834 1.5 27.501 1.5
s14 1 25 3s19.167 3 24.5 3c26.667 0 40 -12.333 40 -37c0 -20 -13 -30 -39 -30c-10.667 0 -26.834 2.16699 -48.501 6.5s-37.834 6.5 -48.501 6.5c-8 0 -19.833 -0.666992 -35.5 -2s-27.5 -2 -35.5 -2c-26 0 -57.333 3 -94 9c-48.667 8 -73 18 -73 30
c0 7.33301 5.33301 15.166 16 23.499s19.667 12.5 27 12.5s20.666 -3.83301 39.999 -11.5s34 -11.5 44 -11.5c7.33301 0 14.333 2 21 6c0 10 -0.5 25.167 -1.5 45.5s-1.5 35.5 -1.5 45.5c0 20 1.66699 49.833 5 89.5s5 69.5 5 89.5v63
c-6.66699 -0.666992 -17.667 -3.5 -33 -8.5s-27 -7.5 -35 -7.5c-8.66699 0 -19 5.33301 -31 16s-16.667 20 -14 28c7.33301 9.33301 44 17 110 23v207c0 75.333 5 135 15 179l-5 50c-14 -0.666992 -35.833 -4.66699 -65.5 -12s-52.5 -11 -68.5 -11
c-5.33301 0 -13.5 -1 -24.5 -3s-19.167 -3 -24.5 -3c-24.667 0 -37 8 -37 24c0 14 9.33301 22.667 28 26c14.667 0 31.334 1.66699 50.001 5l151 27c4.66699 -0.666992 11.167 0 19.5 2s14.166 3 17.499 3c22.667 0 34 -11.333 34 -34
c0 -2.66699 -2.5 -9.83398 -7.5 -21.501s-7.83301 -19.5 -8.5 -23.5l-12 -130l-8 -83l6 -186c102 6.66699 171 10 207 10c54 0 104.333 -10.333 151 -31c62.667 -28 94 -68.333 94 -121zM671.002 164.002c0 39.333 -34.002 68.332 -102.002 86.999
c-41.333 11.333 -84.666 17 -129.999 17c-4.66699 0 -56 -6.66699 -154 -20c-1.33301 -34 -3.66602 -67 -6.99902 -99l-4 -38v-43c68 -19.333 126.667 -29 176 -29c16 0 36.667 2 62 6c106 16.667 159 56.334 159 119.001z" />
    <glyph glyph-name="c" unicode="c" horiz-adv-x="475" 
d="M471 189c0 -7.33301 -13.3301 -17.998 -39.9971 -31.998c-68 -36 -126.333 -54 -175 -54h-54c-48.667 0 -92.334 19.833 -131.001 59.5s-58 83.834 -58 132.501c0 80 41 139 123 177c59.333 27.333 128.666 41 207.999 41c13.333 0 35.666 -6 66.999 -18
c40 -15.333 60 -31.333 60 -48c0 -6.66699 -3.83301 -12.334 -11.5 -17.001s-15.167 -7 -22.5 -7c-8.66699 0 -14.667 1.66699 -18 5c-6 8 -11 13.333 -15 16c-23.333 16 -58 24 -104 24c-50.667 0 -97.667 -11.333 -141 -34c-56.667 -29.333 -85 -71.333 -85 -126
c0 -40.667 14.167 -76.834 42.5 -108.501s62.833 -47.5 103.5 -47.5h44c36 0 66.333 6 91 18c11.333 5.33301 27.666 16.666 48.999 33.999c16 12.667 29.333 19 40 19c6.66699 0 12.834 -3.83301 18.501 -11.5s8.5 -15.167 8.5 -22.5z" />
    <glyph glyph-name="d" unicode="d" horiz-adv-x="605" 
d="M648 -55c0 -10 -5.00293 -17.8311 -15.0029 -23.498s-20.333 -8.5 -31 -8.5c-9.33301 0 -22.833 3.16699 -40.5 9.5s-31.167 9.5 -40.5 9.5h-215c-19.333 11.333 -29 20.666 -29 27.999c0 12 14 22 42 30c-7.33301 0 -9.66602 -0.333008 -6.99902 -1
c8 -2 30.667 -5 68 -9c20 -2 39 -3 57 -3c12 0 18 12.667 18 38c0 13.333 -2.33301 38.166 -7 74.499s-8.66699 58.833 -12 67.5c0.666992 15.333 1 30.666 1 45.999c0 18 -2 32.333 -6 43c-6 16.667 -52.333 25 -139 25c-37.333 0 -76 -4 -116 -12
c-70 -14 -105 -36.333 -105 -67c0 -31.333 24.333 -57.666 73 -78.999c39.333 -17.333 72 -26 98 -26h24c10.667 0 25.334 3.66699 44.001 11c25.333 10 38 22 38 36c0 11.333 -11 22.666 -33 33.999c-28 14 -43.667 23 -47 27c2.66699 8.66699 8.5 16.5 17.5 23.5
s18.167 10.5 27.5 10.5c20 0 43.833 -9 71.5 -27s41.5 -36.333 41.5 -55c0 -32.667 -26 -60.667 -78 -84c-41.333 -18.667 -76.666 -28 -105.999 -28h-27c-36.667 0 -78.334 14.333 -125.001 43c-56 34 -84 72 -84 114c0 10.667 8.66699 25.667 26 45
c14.667 16.667 28 28.667 40 36c10 6 37.667 13.667 83 23c43.333 9.33301 72.333 14 87 14c2 0 32.667 -1 92 -3c20 -0.666992 51.667 -0.333984 95 0.999023l-16 376c-2.66699 1.33301 -7.33398 2 -14.001 2c-20.667 0 -51 -2.33301 -91 -7l-68 -8
c-5.33301 0 -12.333 3.83301 -21 11.5s-13 14.167 -13 19.5c2.66699 3.33301 11.334 12 26.001 26c62.667 0.666992 110.667 3.33398 144 8.00098c6 0.666992 16.167 4.5 30.5 11.5s25.166 10.5 32.499 10.5c28.667 0 43 -12 43 -36c0 -6.66699 -1.33301 -17.667 -4 -33
s-4 -26.666 -4 -33.999l16 -418c6 -35.333 11.333 -80.333 16 -135l10 -112l78 -16c2.66699 0 6.83398 0.5 12.501 1.5s9.83398 1.5 12.501 1.5c6.66699 0 13.167 -3.66699 19.5 -11s9.5 -14.333 9.5 -21z" />
    <glyph glyph-name="e" unicode="e" horiz-adv-x="485" 
d="M452 192c0 -62.667 -13.3359 -119.335 -40.0029 -170.002c-31.333 -60 -74 -90 -128 -90c-5.33301 0 -13.666 1.16699 -24.999 3.5s-19.666 3.5 -24.999 3.5c-84 0 -139.333 105.667 -166 317c-0.666992 1.33301 -1 11.333 -1 30c0 19.333 0.333008 48 1 86
c0.666992 -0.666992 -5.33301 -1 -18 -1c-28.667 0 -44.334 13.667 -47.001 41c14.667 15.333 30.334 23 47.001 23c2 0 5 -0.5 9 -1.5s7 -1.5 9 -1.5c-4 15.333 5 45 27 89c45.333 91.333 89.333 137 132 137c53.333 0 94.333 -12 123 -36
c26.667 -22.667 46.667 -60.667 60 -114c28 -57.333 42 -88.666 42 -93.999c0 -8 -5.16699 -15 -15.5 -21s-19.833 -9 -28.5 -9c8 0 -1.5 1.66699 -28.5 5s-42.167 5 -45.5 5c4 0 -64.667 -4.66699 -206 -14c-6 -9.33301 -9 -24.666 -9 -45.999v-72
c0 -12.667 2.66699 -30.667 8 -54l8 -35l10 -42c24.667 -98.667 71 -148.667 139 -150c40.667 6.66699 71 35 91 85c14.667 36.667 22 77 22 121c0 19.333 -3 37.666 -9 54.999c-8 23.333 -19.667 35 -35 35c-65.333 0 -98 -25.667 -98 -77
c0 -16.667 3.66699 -31.667 11 -45c8 -15.333 19.667 -24 35 -26l13 30c10 16.667 22 25 36 25c6.66699 0 12.834 -3.66699 18.501 -11s8.5 -14.333 8.5 -21c0 -19.333 -8.33301 -37.166 -25 -53.499s-34.667 -24.5 -54 -24.5c-67.333 0 -101 43 -101 129
c0 82 59.667 123 179 123c50.667 0 76 -44.667 76 -134zM370.997 445.999l0.000976562 17c-23.333 60 -40 96.667 -50 110c-18.667 24.667 -48.667 37 -90 37c-26.667 0 -51.334 -28 -74.001 -84c-18 -44.667 -26.667 -75.667 -26 -93z" />
    <glyph glyph-name="f" unicode="f" horiz-adv-x="587" 
d="M600 569c0 -56.667 -21.333 -101.338 -64 -134.005c-38.667 -30 -87.334 -45 -146.001 -45c-16.667 0 -26.334 0.333008 -29.001 1c-9.33301 2.66699 -19.666 9.33398 -30.999 20.001c-1.33301 6 -8.66602 28 -21.999 66c-9.33301 26.667 -14 42 -14 46
c0 21.333 4.33301 42.666 13 63.999c11.333 28 25.666 42 42.999 42c8 0 16.167 -3.33301 24.5 -10s12.5 -13.667 12.5 -21c0 -2 -7.33301 -14 -22 -36c-4.66699 -7.33301 -7 -18.333 -7 -33c0 -31.333 11.667 -62.666 35 -93.999c44 -2 79 11.667 105 41
c24.667 27.333 37 63.333 37 108c0 114 -53 171 -159 171c-29.333 0 -60.333 -13.333 -93 -40c-30 -24 -52 -50.333 -66 -79c-9.33301 -18.667 -14 -48 -14 -88c0 -32.667 7.66699 -106.667 23 -222c16 -121.333 29 -190.333 39 -207c18 0 47.333 1.66699 88 5l61 5
c6.66699 0.666992 12.5 -2.66602 17.5 -9.99902s7.5 -14.333 7.5 -21c0 -8.66699 -5.83301 -16.5 -17.5 -23.5s-22.167 -10.5 -31.5 -10.5c-7.33301 0 -17.833 1 -31.5 3s-24.167 3 -31.5 3c-15.333 0 -32.333 -3 -51 -9c10 -32.667 18 -69.667 24 -111
c4 -27.333 13.333 -51.666 28 -72.999l84 16c35.333 6.66699 54 10 56 10c21.333 0 32 -10 32 -30c0 -14 -24.333 -24.667 -73 -32c-8 -1.33301 -42.333 -5.66602 -103 -12.999c-36 -10.667 -82 -18 -138 -22c-27.333 -2 -43 -3 -47 -3c-16.667 0 -26.667 0.333008 -30 1
c-10 3.33301 -18.333 12.333 -25 27c2.66699 4 10.667 10 24 18s22 12 26 12c4.66699 0 11.667 -1 21 -3s16.333 -3 21 -3s31 3 79 9c-4.66699 54.667 -17.334 120.667 -38.001 198c-10.667 0.666992 -24.667 0.666992 -42 0c-8.66699 -0.666992 -20.834 -1.5 -36.501 -2.5
s-22.5 -1.5 -20.5 -1.5c-8 0 -16.833 3.33301 -26.5 10s-14.5 13.667 -14.5 21c0 6.66699 5.33301 14 16 22s19.334 12 26.001 12s16.834 -2 30.501 -6s23.834 -6 30.501 -6c7.33301 0 15 2.33301 23 7c-10 32.667 -19 77.334 -27 134.001l-24 169
c-2 56.667 -6.33301 93 -13 109c2 8.66699 2.66699 26.667 2 54c-0.666992 22 3.33301 40.667 12 56c33.333 58 70.333 99.667 111 125s94 38 160 38c54 0 98 -26.667 132 -80c29.333 -46 44 -97.333 44 -154z" />
    <glyph glyph-name="g" unicode="g" horiz-adv-x="696" 
d="M684 500c0 -48 -28.3359 -92.666 -85.0029 -133.999c-51.333 -37.333 -101.666 -56 -150.999 -56c-5.33301 0 -13.666 -1.16699 -24.999 -3.5s-19.666 -3.5 -24.999 -3.5h-32c-17.333 0 -50 5 -98 15c-32 6.66699 -58.333 12.667 -79 18
c-0.666992 -4 -3.33398 -11.5 -8.00098 -22.5s-7 -18.833 -7 -23.5c0 -8 4.5 -16.333 13.5 -25s17.5 -13 25.5 -13c-9.33301 0 -1 0.333008 25 1c22.667 0.666992 36.667 1 42 1l67 1c64.667 17.333 109.667 26 135 26c121.333 0 182 -66.667 182 -200
c0 -40.667 -4.66699 -70.667 -14 -90c-17.333 -36 -43 -66 -77 -90c-19.333 -14 -49 -30.333 -89 -49c-55.333 -26 -95.666 -39 -120.999 -39c-4 0 -10.167 -0.5 -18.5 -1.5s-14.5 -1.5 -18.5 -1.5c-48 0 -107.667 13.333 -179 40c-96 36 -144 81 -144 135
c0 26 23 64.667 69 116c20.667 23.333 61.667 42 123 56c49.333 11.333 94 17 134 17c46 0 86.667 -5 122 -15c54 -15.333 81 -40.333 81 -75c0 -29.333 -14.333 -58.166 -43 -86.499s-57.667 -42.5 -87 -42.5c-2.66699 0 -7 -1.16699 -13 -3.5s-10.333 -3.5 -13 -3.5h-71
c-24 0 -48.667 3.33301 -74 10c-33.333 8.66699 -50 21.667 -50 39c0 7.33301 5.33301 15 16 23s19.667 12 27 12c4 0 9.16699 -3.16699 15.5 -9.5s10.166 -11.5 11.499 -15.5c21.333 -6.66699 36.333 -10 45 -10h57c74 0 111 26.667 111 80c0 29.333 -48.667 44 -146 44
c-11.333 0 -23.333 -0.333008 -36 -1l-19 -1c-26.667 -1.33301 -64.334 -10.333 -113.001 -27c-7.33301 -2.66699 -23.333 -15.667 -48 -39c-27.333 -26 -41 -46.333 -41 -61c0 -42.667 45 -78.334 135 -107.001c54.667 -17.333 102.334 -27.333 143.001 -30
c174 29.333 261 104.666 261 225.999c0 48.667 -10 84.5 -30 107.5s-54 34.5 -102 34.5c-27.333 0 -68 -3.83301 -122 -11.5s-94.667 -11.5 -122 -11.5c-74 0 -111 24.333 -111 73c0 10 3.16699 25 9.5 45s9.5 35 9.5 45c-66.667 56.667 -100 108.667 -100 156
c0 34 26.333 67.667 79 101c27.333 17.333 57.333 32.333 90 45c46.667 18 80 28.667 100 32c12 2 44 3 96 3c-3.33301 0 16.334 -6.33301 59.001 -19c14 19.333 36 42.666 66 69.999c38 34.667 65.667 52 83 52c18 0 27 -10.667 27 -32
c0 -7.33301 -0.333008 -12.666 -1 -15.999c-58.667 -28 -93.667 -56.333 -105 -85c52 -22.667 88.333 -43 109 -61c32.667 -28.667 49 -65 49 -109zM618.997 498.001c0 53.333 -41 95.332 -123 125.999c-12.667 4.66699 -30 7 -52 7c-20 0 -34 -0.333008 -42 -1
c-8.66699 0.666992 -19.667 8.33398 -33 23.001c-12 3.33301 -28 5 -48 5c-34.667 0 -80 -14 -136 -42c-63.333 -32 -95 -64.667 -95 -98c0 -20 17 -48.333 51 -85c20 -21.333 40 -37.333 60 -48c8.66699 -4.66699 26 -10.334 52 -17.001c33.333 -8.66699 57.333 -13 72 -13
h54c54 0 103.667 10 149 30c60.667 26.667 91 64.334 91 113.001z" />
    <glyph glyph-name="h" unicode="h" horiz-adv-x="679" 
d="M728 -68c0 -10.667 -4.66504 -19.6631 -13.998 -26.9961s-19.666 -11 -30.999 -11c-26 0 -42 -0.666992 -48 -2l-153 -35c-4 -0.666992 -14.333 -4.33398 -31 -11.001s-26.334 -10 -29.001 -10c-3.33301 0 -9.16602 3.33301 -17.499 10s-12.5 11.334 -12.5 14.001
c0 10.667 8.66699 19 26 25c14 2.66699 35 7 63 13c36.667 8 55 18.333 55 31c0 18 -8.33301 78.667 -25 182c-18.667 115.333 -33.667 188 -45 218c-15.333 40 -35 60 -59 60c-45.333 0 -102 -27.667 -170 -83v-136c2 0 4.66699 -8 8 -24
c0.666992 -0.666992 1.66699 -28.667 3 -84c1.33301 -38 5.33301 -62 12 -72c11.333 0.666992 29 4.33398 53 11.001s42.667 10 56 10c16.667 0 25 -8.33301 25 -25c0 -17.333 -8.66699 -27.333 -26 -30l-130 -19c-20.667 -3.33301 -51 -9 -91 -17
c-37.333 -8 -55 -12 -53 -12c-12.667 0 -20.667 1 -24 3c-6.66699 2.66699 -12.334 10.667 -17.001 24l21 22c27.333 2 67.666 8 120.999 18c3.33301 14.667 5 29 5 43c0 10.667 -1.33301 27 -4 49s-4 38.333 -4 49v79c0 17.333 -0.666992 39.333 -2 66
c-18.667 -20.667 -32.334 -31 -41.001 -31c-8 0 -15 3 -21 9s-9 13 -9 21c0 7.33301 5.33301 15.333 16 24l25 18c19.333 15.333 29 25.666 29 30.999l-14 350h-29c-11.333 0 -27.833 -3.16699 -49.5 -9.5s-38.167 -9.5 -49.5 -9.5c-6 0 -13 2.16699 -21 6.5
s-12 9.16602 -12 14.499v14c16 8.66699 30 13.667 42 15l106 14c42.667 10.667 62.334 16 59.001 16c6.66699 0 12.667 -4.66699 18 -14c3.33301 -8 5 -14.667 5 -20c0 -2.66699 -2 -8.33398 -6 -17.001s-6.33301 -14.334 -7 -17.001c0 -6 -0.666992 -15 -2 -27
s-2 -21 -2 -27c0 -8.66699 3.33301 -14 10 -16v-242c87.333 53.333 142.666 80 165.999 80c66.667 0 110.667 -55 132 -165l15 -89l41 -257c13.333 -1.33301 31.5 2.16699 54.5 10.5s39.167 12.5 48.5 12.5c7.33301 0 14.833 -2.33301 22.5 -7s11.5 -10.334 11.5 -17.001z
" />
    <glyph glyph-name="i" unicode="i" horiz-adv-x="385" 
d="M310 582c0 -22 -14 -40.001 -42 -54.001c-10 -4.66699 -31 -12 -63 -22c-34.667 0.666992 -63 12.167 -85 34.5s-33 50.833 -33 85.5c0 23.333 11.333 47.333 34 72s45.334 37 68.001 37c8 0 16.167 -2.66699 24.5 -8s12.5 -11.666 12.5 -18.999
c0 -6.66699 -14.333 -17 -43 -31c-20.667 -20 -31 -39.667 -31 -59c0 -38 15 -57 45 -57c12 0 23.667 4 35 12c0 2.66699 -7.33301 10.167 -22 22.5s-23.334 23.166 -26.001 32.499c18 13.333 35 20 51 20c18 0 35 -6.66699 51 -20s24 -28.666 24 -45.999zM413 -47.001
c0 -8.66699 -4 -17.5 -12 -26.5s-16.333 -13.5 -25 -13.5c11.333 0 4.66602 2 -20.001 6c-20.667 3.33301 -39.334 6 -56.001 8c-29.333 3.33301 -59 5 -89 5h-109c-42 0 -63 11 -63 33c0 6 5.33301 12.833 16 20.5s19.334 11.5 26.001 11.5c-12 0 3.16699 -2.33301 45.5 -7
s64.833 -6.66699 67.5 -6c4 -1.33301 7.66699 -2 11 -2c11.333 0 18 9.66699 20 29v42c0 6 0.333008 12.667 1 20v11c0 46 -4.33301 148.667 -13 308c0 2 -3 5.66699 -9 11c-19.333 -2 -49.666 -6.66699 -90.999 -14l-69 -12c-27.333 0 -41 11 -41 33c0 14 19 23.333 57 28
c-6.66699 0 16 1.66699 68 5c12.667 0.666992 38 5.66699 76 15l54 13c19.333 0 29 -13.333 29 -40c0 -2.66699 -1.83301 -6.5 -5.5 -11.5s-5.83398 -8.5 -6.50098 -10.5c-1.33301 -4.66699 -1.66602 -13 -0.999023 -25l10 -156v-81l3 -170h42c6 0 14.833 1.16699 26.5 3.5
s20.5 3.5 26.5 3.5c20.667 0 31 -10.333 31 -31z" />
    <glyph glyph-name="j" unicode="j" horiz-adv-x="497" 
d="M471 160c0 -66 -22.002 -122.666 -66.002 -169.999c-44.667 -49.333 -99.667 -74 -165 -74c-60 0 -113.333 23.667 -160 71s-70 101 -70 161c0 57.333 16.833 102.333 50.5 135s79.167 49 136.5 49c31.333 0 59 -14.833 83 -44.5s36 -60.834 36 -93.501
c0 -66.667 -30.667 -100 -92 -100c-14.667 0 -36.667 7 -66 21c-31.333 14.667 -48.333 27.667 -51 39c18 22 32.333 33 43 33c4.66699 0 17 -7 37 -21s35 -21 45 -21c15.333 0 23 13.333 23 40c0 24 -8.16699 45.333 -24.5 64s-36.166 28 -59.499 28
c-31.333 0 -56.333 -11.833 -75 -35.5s-28 -51.5 -28 -83.5c0 -53.333 18.833 -98.833 56.5 -136.5s83.167 -56.5 136.5 -56.5c96.667 0 145 72 145 216c0 43.333 -14.333 124.666 -43 243.999c-32.667 136 -62.334 204 -89.001 204c-6.66699 0 -16.5 -1 -29.5 -3
s-22.333 -3 -28 -3s-13.667 -0.666992 -24 -2s-18.166 -2 -23.499 -2c-6 0 -12.5 3.16699 -19.5 9.5s-10.5 12.5 -10.5 18.5c0 8 5.83301 15.667 17.5 23s21.834 11 30.501 11c4.66699 0 12 -0.666992 22 -2s17.333 -2 22 -2c23.333 0 89.333 9.66699 198 29
c9.33301 0 17.5 -3.16699 24.5 -9.5s10.5 -14.166 10.5 -23.499c0 -10.667 -4 -20.167 -12 -28.5s-17.333 -12.5 -28 -12.5c-7.33301 0 -17.833 0.5 -31.5 1.5s-24.167 1.5 -31.5 1.5c8 -36 23.167 -88.833 45.5 -158.5s37.5 -121.834 45.5 -156.501
c12.667 -55.333 19 -108.666 19 -159.999z" />
    <glyph glyph-name="k" unicode="k" horiz-adv-x="617" 
d="M661 86c0 -9.33301 -12.666 -48 -37.999 -116l-42 -113c-6 -25.333 -15 -38 -27 -38c-7.33301 0 -19 6 -35 18c22 51.333 38 90.333 48 117c-33.333 36.667 -77.333 77 -132 121l-148 119c-16 -2.66699 -27.667 -5 -35 -7c-14.667 -4 -25.667 -9.33301 -33 -16
c0.666992 -27.333 1.66699 -48.333 3 -63c2 -24 5.66699 -44.333 11 -61c11.333 1.33301 26.666 4.33301 45.999 9c2.66699 0.666992 7.5 3.5 14.5 8.5s11.5 7.5 13.5 7.5h23c8 -16 12 -23.333 12 -22c0 -18.667 -40.333 -37 -121 -55
c-101.333 -22.667 -149.666 -34 -144.999 -34c-9.33301 0 -21.666 5.66699 -36.999 17c-1.33301 9.33301 4.16699 17.833 16.5 25.5s23.166 10.5 32.499 8.5c18 2.66699 36 5.66699 54 9c24 6.66699 36 16.667 36 30c0 -6.66699 -2 16 -6 68l-1 13
c-1.33301 10.667 -3 31 -5 61c-4 66.667 -7 145 -9 235c-0.666992 36.667 -5.66699 86 -15 148v92c-0.666992 2.66699 -3.33398 10.667 -8.00098 24c-56 -20.667 -87.667 -31 -95 -31c-5.33301 0 -17.333 6 -36 18c8 10.667 47 27 117 49
c1.33301 0.666992 8 5.33398 20 14.001c7.33301 5.33301 15.333 8 24 8c18.667 0 28 -9 28 -27c0 -4 -1 -10.333 -3 -19s-3 -14.334 -3 -17.001l21 -318c18 16 53.667 33 107 51c51.333 18 90 27 116 27c28.667 0 52.334 -5.33301 71.001 -16c23.333 -13.333 35 -33 35 -59
c0 -41.333 -20 -76 -60 -104c-22.667 -16 -64.667 -35.667 -126 -59c23.333 -28 58.666 -60.333 105.999 -97l134 -101c5.33301 18.667 11 37 17 55c9.33301 28 19.333 42 30 42c16 0 24 -7.33301 24 -22zM480.001 362c0 25.333 -14.333 37.999 -43 37.999
c-20 0 -33 -1.33301 -39 -4c-62.667 -9.33301 -110 -25 -142 -47c-6.66699 -4.66699 -16.667 -14.667 -30 -30c-9.33301 -10.667 -16 -15.334 -20 -14.001c5.33301 -14 8 -42.333 8 -85c56.667 12.667 106.667 25.334 150 38.001c77.333 22.667 116 57.334 116 104.001z" />
    <glyph glyph-name="l" unicode="l" horiz-adv-x="259" 
d="M277 29c0 -22.667 -14.333 -32.333 -43 -29h-155c-2 0 -4.66699 -1 -8 -3s-6 -3 -8 -3c-10 0 -20.333 2.66699 -31 8c-12.667 6 -19 13.333 -19 22c0 6 1 14.667 3 26s3 20 3 26v509c0 61.333 14 92 42 92c19.333 0 29 -10 29 -30c0 -9.33301 -3 -24.5 -9 -45.5
s-9 -37.167 -9 -48.5v-33c-0.666992 -4.66699 -1 -9.66699 -1 -15v-252c0 -134 8 -201 24 -201h87c6.66699 0 17 1.5 31 4.5s24.333 4.5 31 4.5c22 0 33 -10.667 33 -32z" />
    <glyph glyph-name="m" unicode="m" horiz-adv-x="1093" 
d="M1109 88l-345.991 -171.998c-9.33301 0 -18.333 2.66699 -27 8s-13 12.333 -13 21c0 6 17 17 51 33c20.667 10 47.667 22.333 81 37l-59 293c-24 115.333 -59 212.666 -105 291.999c-28 1.33301 -54.333 -15 -79 -49l-60 -89c0 -8 -1.33301 -20.667 -4 -38l-3 -171
c-0.666992 -27.333 5.66602 -45.333 18.999 -54c4 -2 25.333 -9.66699 64 -23c23.333 -8 44 -21 62 -39c-11.333 -18 -20.333 -27 -27 -27h-19c-11.333 0 -27 6.16699 -47 18.5s-34.667 19.5 -44 21.5c-54 10.667 -95 19 -123 25c-63.333 14 -99 26 -107 36v17
c27.333 7.33301 40 11 38 11c9.33301 0 48.666 -8.66699 117.999 -26c5.33301 5.33301 8 12.333 8 21l7 326c-2.66699 16.667 -5 33.334 -7 50.001c-3.33301 8.66699 -14 13 -32 13c-22.667 0 -60.834 -23 -114.501 -69s-80.167 -79.667 -79.5 -101l10 -306
c2 -54 7 -89 15 -105c5.33301 0.666992 33.666 5.66699 84.999 15l60 11c7.33301 0 15.833 -2.66699 25.5 -8s14.5 -11.333 14.5 -18c0 -2.66699 -1.16699 -6.5 -3.5 -11.5s-3.5 -7.83301 -3.5 -8.5c0 -4 -6.66699 -6 -20 -6l-207 -29c-13.333 0 -35 -1 -65 -3l-45 -3
c-30.667 -2 -49.334 3.33301 -56.001 16c-0.666992 3.33301 -1 6 -1 8c0 18 15 27 45 27c12 0 24.333 -0.333008 37 -1l37 -2c18 -0.666992 27 6.33301 27 21v90c0 0.666992 -1.66699 26.667 -5 78l-5 77c0 5.33301 -1.33301 17 -4 35c-1.33301 14.667 -2 26.667 -2 36v161
c0 18.667 -4 50.667 -12 96c-10 -1.33301 -31 -9.33301 -63 -24s-49.167 -22 -51.5 -22s-5.33301 -1 -9 -3s-6.83398 -3 -9.50098 -3c-11.333 0 -21.333 3.66699 -30 11s-12.667 16.333 -12 27c39.333 19.333 117.666 51.666 234.999 96.999
c7.33301 0 14.666 -2.33301 21.999 -7s11 -10.334 11 -17.001c0 -11.333 -10 -24.333 -30 -39c0 -30 3 -59.333 9 -88c26.667 25.333 58.667 50.333 96 75c51.333 34 91.666 51 120.999 51c30.667 0 51.667 -10.333 63 -31c7.33301 -13.333 13 -37.666 17 -72.999
c7.33301 14.667 24.333 30.834 51 48.501s47.667 26.5 63 26.5c54 0 91.333 -28 112 -84l40 -153c20.667 -56.667 39.667 -127.334 57 -212.001c15.333 -74.667 30.333 -126.334 45 -155.001l77 43c46.667 25.333 71.667 38 75 38c10.667 0 18 -3.66699 22 -11
c2.66699 -3.33301 6 -13.333 10 -30z" />
    <glyph glyph-name="n" unicode="n" horiz-adv-x="904" 
d="M969 85c-0.666992 -10.667 -7.66406 -23.5029 -20.9971 -38.5029s-25.333 -23.833 -36 -26.5c-38.667 -10 -77.334 -27.667 -116.001 -53l-77 -51c-37.333 -23.333 -63 -35 -77 -35c-8.66699 0 -20.334 4.33301 -35.001 13v18l80 41c43.333 26 65 48.667 65 68l-37 125
l-51 183c-22.667 74.667 -44.667 132.334 -66 173.001c-38 72 -82 108 -132 108c-20.667 0 -55.667 -16.667 -105 -50s-74 -59.333 -74 -78c0 -10.667 4.33301 -59 13 -145c21.333 -212 41.666 -318 60.999 -318c2.66699 0 44.334 6.66699 125.001 20
c11.333 -9.33301 17 -20.333 17 -33c0 -21.333 -14.333 -32 -43 -32c-4 0 -9.5 0.5 -16.5 1.5s-12.5 1.5 -16.5 1.5l-307 -38c-5.33301 1.33301 -14 6 -26 14c-4.66699 4.66699 -7 9 -7 13c0 18 29.667 28 89 30c33.333 1.33301 64 4.66602 92 9.99902c6 22 9 34.667 9 38
c-4 28 -9 65 -15 111c-18.667 138.667 -30 256.667 -34 354c-2 56.667 -10 102 -24 136l-154 -45c-7.33301 0 -16.5 2.83301 -27.5 8.5s-16.5 11.834 -16.5 18.501s25 18.334 75 35.001l82 27c42.667 14 69 21 79 21c12 0 22.667 -9.33301 32 -28
c-2 -3.33301 -3 -11.333 -3 -24c0 -8 5 -35 15 -81c54 34 85.333 53.333 94 58c37.333 19.333 72.333 29 105 29c66.667 0 128.667 -62 186 -186c34 -74 59 -147.667 75 -221c5.33301 -23.333 15 -56.666 29 -99.999c18 -54.667 33.667 -93 47 -115
c8 2.66699 28.667 12.667 62 30c28 14.667 49 22 63 22c9.33301 0 16.666 -3 21.999 -9z" />
    <glyph glyph-name="o" unicode="o" horiz-adv-x="570" 
d="M532 287c0 -58 -26.5 -111.165 -79.5 -159.498s-108.833 -72.5 -167.5 -72.5h-39c-60.667 0 -114.167 24.667 -160.5 74s-69.5 104.666 -69.5 165.999c0 102 47 183.667 141 245c61.333 40 114.333 60 159 60c15.333 0 23 -8 23 -24c0 -2 -0.666992 -4.83301 -2 -8.5
s-2 -6.5 -2 -8.5c-73.333 -10.667 -134.333 -38 -183 -82c-54 -48.667 -81 -108.334 -81 -179.001c0 -58 17.667 -105 53 -141s81.666 -54 138.999 -54c51.333 0 98.333 16.667 141 50c46.667 35.333 70 78 70 128c0 36 -8 70 -24 102c-20.667 41.333 -49.667 62 -87 62
c-27.333 0 -53.333 -7.33301 -78 -22c-28.667 -16.667 -43 -37.667 -43 -63c0 -21.333 6 -41 18 -59c13.333 -20 30 -30 50 -30c18.667 0 28 6.33301 28 19c0 4.66699 -1.83301 12.667 -5.5 24s-5.5 19.666 -5.5 24.999c0 14.667 12 22 36 22
c10.667 0 21.167 -8.16699 31.5 -24.5s15.5 -30.166 15.5 -41.499c0 -18 -11.167 -35.167 -33.5 -51.5s-43.166 -24.5 -62.499 -24.5c-33.333 0 -63.833 13 -91.5 39s-41.5 55.667 -41.5 89c0 46.667 21 83.667 63 111c36.667 24 79.667 36 129 36c52 0 93 -25 123 -75
c24 -40 36 -84 36 -132z" />
    <glyph glyph-name="p" unicode="p" horiz-adv-x="657" 
d="M692 615c0 -37.333 -33.999 -72.332 -101.999 -104.999c-42.667 -20 -108.667 -41.667 -198 -65c-79.333 -20.667 -121.666 -32.667 -126.999 -36c2.66699 -29.333 8.66699 -73 18 -131c5.33301 -21.333 15.333 -91.333 30 -210c11.333 -90 24.333 -145 39 -165
c13.333 2 39.666 7 78.999 15c36 7.33301 55.333 11 58 11c28 0 42 -10.667 42 -32c0 -22 -18.333 -33.667 -55 -35c-14.667 0 -41.334 -0.666992 -80.001 -2c-16 -0.666992 -51.333 -6 -106 -16c-65.333 -12 -113 -18 -143 -18c-24 0 -38.333 11.333 -43 34
c7.33301 6 18.333 12.667 33 20c29.333 0 73.333 4.66699 132 14c2.66699 3.33301 3.66699 10.333 3 21l-74 486c-5.33301 0.666992 -14.833 -2.33301 -28.5 -9s-21.167 -10 -22.5 -10c-9.33301 0 -20 4.16699 -32 12.5s-18 16.833 -18 25.5c0 10 6.66699 17.667 20 23
c10.667 4.66699 21.667 7 33 7c-4.66699 0 8 -0.333008 38 -1l-29 245c-6.66699 3.33301 -12.667 5 -18 5c-10 0 -24.833 -2.16699 -44.5 -6.5s-34.5 -6.5 -44.5 -6.5c-8 0 -17.667 3.16699 -29 9.5s-17 13.166 -17 20.499c0 21.333 20.667 32 62 32c4 0 10 -0.5 18 -1.5
s14 -1.5 18 -1.5c11.333 0 27.666 3.66699 48.999 11s36.666 11 45.999 11c2 0 5.33301 -1 10 -3s8.33398 -3 11.001 -3c18 0 45.167 2.16699 81.5 6.5s63.5 6.5 81.5 6.5c60.667 0 121.334 -10.667 182.001 -32c84.667 -30 127 -72.333 127 -127zM608.001 620.001
c0 37.333 -32.667 64.666 -98 81.999c-42.667 11.333 -92 17 -148 17c-67.333 0 -113.333 -4.33301 -138 -13c0 -32.667 12 -114.667 36 -246l97 26c167.333 44.667 251 89.334 251 134.001z" />
    <glyph glyph-name="q" unicode="q" horiz-adv-x="494" 
d="M527 -137c0 -8.66699 -4.83496 -16.001 -14.502 -22.001s-19.167 -9 -28.5 -9c-11.333 0 -27.833 1.16699 -49.5 3.5s-38.167 3.5 -49.5 3.5c-6.66699 0 -16.667 -1.66699 -30 -5s-23.333 -5 -30 -5c-1.33301 0.666992 -11.333 1.66699 -30 3
c-15.333 1.33301 -32.333 1 -51 -1c-33.333 -3.33301 -60.333 -5 -81 -5c-54.667 0 -82 9.66699 -82 29c0 8 4.83301 15.333 14.5 22s18.834 10 27.501 10c7.33301 0 18.166 -1.5 32.499 -4.5s25.166 -4.5 32.499 -4.5s18.5 0.833008 33.5 2.5s26.333 2.5 34 2.5
s20.5 2.33301 38.5 7c0.666992 12.667 2 34 4 64l16 246l-6 107c-10 4 -20 6 -30 6c-6 0 -14.833 -1.33301 -26.5 -4s-20.5 -4 -26.5 -4c-41.333 0 -84.666 11 -129.999 33c-56.667 27.333 -85 61.666 -85 102.999c0 53.333 31 105 93 155c48.667 39.333 103.667 69 165 89
c29.333 0 47 8.33301 53 25c1.33301 4 2.33301 23 3 57c14 4.66699 25.667 7 35 7c20.667 0 31 -5 31 -15c0 -4 -1.33301 -10.5 -4 -19.5s-4 -15.833 -4 -20.5s0.666992 -9 2 -13c7.33301 0 18 1 32 3s24.667 3 32 3c8 0 16.833 -2.66699 26.5 -8s14.5 -11.666 14.5 -18.999
c0 -6 -5.5 -12.667 -16.5 -20s-19.833 -11 -26.5 -11c-2.66699 0 -7.5 1.66699 -14.5 5s-11.833 5 -14.5 5c-4 0 -9.5 -0.5 -16.5 -1.5s-12.5 -1.5 -16.5 -1.5c-2 -16.667 -4.66699 -50.667 -8 -102c-2.66699 -43.333 -4 -72.666 -4 -87.999
c2.66699 -21.333 5.66699 -58.666 9 -111.999c6 0 14.833 1.66699 26.5 5s20.5 5 26.5 5c5.33301 0 12 -4 20 -12s12 -14.667 12 -20c0 -10.667 -4.66699 -19.334 -14 -26.001s-19.666 -10 -30.999 -10c-3.33301 0 -8.66602 0.666992 -15.999 2
c-4.66699 1.33301 -14.667 1 -30 -1l-20 -405c70.667 0 103 0.333008 97 1c50 -3.33301 75 -15 75 -35zM316.998 356.999v294c-55.333 -15.333 -106 -39 -152 -71c-60.667 -42 -91 -87.333 -91 -136c0 -27.333 22 -49.666 66 -66.999c35.333 -14 68.333 -21 99 -21
c-4.66699 0 8.33301 1 39 3c20.667 1.33301 33.667 0.666016 39 -2.00098z" />
    <glyph glyph-name="r" unicode="r" horiz-adv-x="600" 
d="M615 504c0 -54.667 -15.166 -96.6729 -45.499 -126.006s-72.833 -44 -127.5 -44c-3.33301 0 -22 3.33301 -56 10l-13 10c-1.33301 6.66699 -1.33301 17.667 0 33c1.33301 16 2 28 2 36c0 4 -1.5 10.667 -4.5 20s-4.5 16 -4.5 20c0 26 17 39 51 39
c5.33301 0 11 -2.66699 17 -8s9 -10.666 9 -15.999c0 -7.33301 -2.16699 -18.166 -6.5 -32.499s-6.5 -25.166 -6.5 -32.499c0 -13.333 1 -21.333 3 -24c2.66699 -4.66699 10 -7 22 -7c67.333 0 101 40 101 120c0 32 -6 58.667 -18 80c-14.667 26.667 -36.667 40 -66 40
c-53.333 0 -107.333 -30 -162 -90c-51.333 -56 -77 -106.333 -77 -151v-240c0 -36.667 4 -84.667 12 -144c10.667 0.666992 27.5 5.16699 50.5 13.5s39.833 12.5 50.5 12.5c2.66699 0 6.5 -1 11.5 -3s8.5 -3 10.5 -3c2.66699 -5.33301 4 -12 4 -20
c0 -25.333 -6.33301 -38 -19 -38c-14.667 0 -25 1 -31 3l-238 -39c-21.333 9.33301 -32 18 -32 26c0 10.667 5.66699 19.334 17 26.001c9.33301 6 19.666 9 30.999 9c4.66699 0 12 -0.5 22 -1.5s17.333 -1.5 22 -1.5c22.667 0 35.667 4 39 12
c1.33301 2.66699 1.66602 17.667 0.999023 45l-1 58c-1.33301 77.333 -2 132.333 -2 165v165l-3 169c-4.66699 -1.33301 -27.667 -10.666 -69 -27.999c-37.333 -15.333 -57 -23 -59 -23c-8.66699 0 -17.5 3.33301 -26.5 10s-13.5 14 -13.5 22c0 6.66699 20.333 18 61 34
l82 32l29 19.5c12.667 8.33301 23.334 12.5 32.001 12.5c25.333 0 38 -8.33301 38 -25c0 -2 -1.66699 -6 -5 -12l-7 -14c-4.66699 -22 -7 -42.333 -7 -61c0 -16 1.66699 -26.333 5 -31c80.667 95.333 168 143 262 143c36 0 65.333 -22.333 88 -67
c18 -35.333 27 -69.666 27 -102.999z" />
    <glyph glyph-name="s" unicode="s" horiz-adv-x="542" 
d="M581 733c-20 -19.333 -41.333 -49.9971 -64 -91.9971l-31 -62c-17.333 -35.333 -32 -53 -44 -53c-5.33301 0 -11.5 2.83301 -18.5 8.5s-10.5 11.167 -10.5 16.5c0 2 7.33301 15.5 22 40.5s22 38.833 22 41.5c0 15.333 -11.667 27.666 -35 36.999c-18.667 8 -37 12 -55 12
c-46.667 0 -89 -16.667 -127 -50c-40 -34 -60 -74 -60 -120c0 -50 21.333 -93 64 -129l131 -89c57.333 -38.667 91.666 -79.667 102.999 -123c17.333 -20.667 26 -53 26 -97c0 -66.667 -32.667 -124 -98 -172c-58.667 -42.667 -119.667 -64 -183 -64
c-55.333 0 -105.333 24.333 -150 73s-67 100.667 -67 156c0 51.333 19.167 94.833 57.5 130.5s83.5 53.5 135.5 53.5c40.667 0 75.667 -16.333 105 -49s44 -69.334 44 -110.001c0 -25.333 -12.667 -49.833 -38 -73.5s-50.666 -35.5 -75.999 -35.5c-2.66699 0 -7 0.5 -13 1.5
s-10.333 1.5 -13 1.5c-22.667 0 -41.667 10.667 -57 32c-14 19.333 -21 40.666 -21 63.999c0 13.333 1 22 3 26c4.66699 10 16.667 17 36 21c8.66699 -8 14.667 -26.667 18 -56c2.66699 -22.667 10.667 -34 24 -34c2.66699 0 6.83398 -1 12.501 -3s10.167 -3 13.5 -3
c16.667 0 30 6.33301 40 19s15 27.334 15 44.001c0 30 -11.833 55.5 -35.5 76.5s-50.834 31.5 -81.501 31.5s-57.667 -14.833 -81 -44.5s-35 -60.167 -35 -91.5c0 -44 18 -85.833 54 -125.5s75.667 -59.5 119 -59.5c52 0 100.667 17.333 146 52c48.667 38 73 82.333 73 133
c0 46.667 -17.333 90 -52 130c-23.333 27.333 -62.666 61 -117.999 101c-58 42 -98.167 75.167 -120.5 99.5s-33.5 55.833 -33.5 94.5c0 66.667 24.667 122 74 166c47.333 42.667 104.666 64 171.999 64c46 0 84.333 -12.667 115 -38c14.667 16.667 24.334 37.667 29.001 63
c5.33301 3.33301 15.333 7.66602 30 12.999c17.333 0 28.666 -9.33301 33.999 -28z" />
    <glyph glyph-name="t" unicode="t" horiz-adv-x="491" 
d="M486 101c0 -62 -17.335 -109.999 -52.002 -143.999s-83 -51 -145 -51c-92 0 -149.333 65.333 -172 196c-1.33301 6 -0.333008 28 3 66c0.666992 10 2.33398 29.667 5.00098 59v23c-4.66699 -1.33301 -19 -6.83301 -43 -16.5s-36.667 -14.5 -38 -14.5
c-3.33301 0 -16 5.66699 -38 17c9.33301 18 31.333 33.667 66 47l52 20c2.66699 16.667 6.16699 41.667 10.5 75s13.166 97.666 26.499 192.999l3 19c18.667 119.333 37.334 179 56.001 179c23.333 0 35 -8 35 -24c0 -4 -4 -16.333 -12 -37
c-8 -22.667 -12.667 -37.334 -14 -44.001c-18 -116 -31.333 -228.333 -40 -337c10 1.33301 46.667 16 110 44c23.333 0 35 -9 35 -27c0 -14.667 -23.333 -30 -70 -46c-52 -17.333 -78.333 -26.666 -79 -27.999c-8 -9.33301 -12 -43.333 -12 -102
c0 -44.667 7.66699 -86.667 23 -126c22 -56 54 -84 96 -84h23c36.667 0 65.334 13 86.001 39c18.667 23.333 28 54 28 92c0 19.333 -6 45 -18 77c-14.667 39.333 -32 59 -52 59c-17.333 0 -31.333 -10.333 -42 -31c-8.66699 -16.667 -13 -34.667 -13 -54
c0 -13.333 1.33301 -22.333 4 -27c5.33301 -9.33301 18 -16.666 38 -21.999c0 -2 1.16699 -5.33301 3.5 -10s3.5 -8.33398 3.5 -11.001c0 -24 -15 -36 -45 -36c-15.333 0 -30 10 -44 30s-21 38 -21 54c0 42 9.66699 77.333 29 106c22 33.333 53 50 93 50
c38.667 0 69.667 -21.667 93 -65c18.667 -34.667 28 -70.667 28 -108z" />
    <glyph glyph-name="u" unicode="u" horiz-adv-x="695" 
d="M744 725c0 -6 -3.33301 -12.8408 -10 -20.5078s-13 -11.5 -19 -11.5c-11.333 0 -28.333 2.16699 -51 6.5s-39.667 6.5 -51 6.5c-12 0 -20 -3 -24 -9c2.66699 -34.667 11.667 -86 27 -154c10.667 -46 17.667 -91.333 21 -136l13 -161c0.666992 -8 1 -19.667 1 -35
c0 -55.333 -10.667 -114 -32 -176c-34 -98.667 -91.667 -148 -173 -148c-3.33301 0 -9.33301 1.16699 -18 3.5s-15 3.5 -19 3.5c-31.333 0 -72.333 16 -123 48c-46 28.667 -80.667 57.334 -104 86.001c-16.667 20.667 -37 61.334 -61 122.001
c-7.33301 18.667 -11 56.334 -11 113.001c0 58 7 116.333 21 175c3.33301 12 10.333 40.667 21 86v17h-97c-9.33301 0 -23.333 6.66699 -42 20c2 16.667 8 27.334 18 32.001c4.66699 2 13.667 3 27 3c-24.667 0 -2.66699 -2.66699 66 -8s106.667 -7.66602 114 -6.99902
c10.667 0.666992 38.667 2 84 4c12 0.666992 18 -7.66602 18 -24.999c0 -23.333 -12.333 -35 -37 -35c-6.66699 0 -16.667 1.5 -30 4.5s-23.333 4.5 -30 4.5c-13.333 0 -22 -1.66699 -26 -5c-30.667 -98.667 -46 -188.667 -46 -270c0 -75.333 24.667 -145.666 74 -210.999
c55.333 -72.667 123.666 -109 204.999 -109c2.66699 0 7.5 1.16699 14.5 3.5s12.167 3.5 15.5 3.5c42.667 0 73 47.333 91 142c10 52.667 15 104.334 15 155.001c0 70 -5.66699 141.667 -17 215c-2.66699 18 -16 88 -40 210c0 3.33301 -6.66699 15 -20 35
c-16 0 -40.667 -0.666992 -74 -2l-50 -2c-23.333 -0.666992 -42.666 6.33301 -57.999 21c8 20.667 29.333 31 64 31c4 0 10.167 -0.5 18.5 -1.5s14.833 -1.5 19.5 -1.5l270 6c30 0.666992 45 -9 45 -29z" />
    <glyph glyph-name="v" unicode="v" horiz-adv-x="493" 
d="M528 739c0 -17.333 -10.9971 -26 -32.9971 -26c-6.66699 0 -16.834 2.33301 -30.501 7s-23.5 7 -29.5 7c-12.667 0 -19.334 -20 -20.001 -60l-2 -86c-4 -19.333 -5.66699 -39.333 -5 -60l2 -56c1.33301 -42 -7.66699 -179.333 -27 -412
c-0.666992 -11.333 -4.33398 -35.333 -11.001 -72c-5.33301 -30.667 -8 -54.667 -8 -72c0 -8 0.333008 -15.667 1 -23c-7.33301 -30 -23.666 -45 -48.999 -45c-14 0 -22.333 3.66699 -25 11c-4 26 -11.333 57 -22 93l-95 326l-70 250c-7.33301 0 -18.5 -1.83301 -33.5 -5.5
s-26.167 -5.5 -33.5 -5.5c-6.66699 0 -13.667 2.66699 -21 8s-11 11.333 -11 18c0 10 30.667 18.667 92 26c44.667 5.33301 89.667 8 135 8c4.66699 0 9.16699 -2.66699 13.5 -8s6.5 -10.333 6.5 -15c0 -15.333 -8.66699 -23 -26 -23c-5.33301 0 -13.333 0.833008 -24 2.5
s-18.667 2.5 -24 2.5c-8 0 -13.667 -2 -17 -6l72 -281c28.667 -104 57 -196.333 85 -277c10 27.333 15 55 15 83v67c0 6 1 25.333 3 58l3 57c18 124.667 27 273.667 27 447c0 24 -2 38.333 -6 43c-6.66699 10.667 -27 16 -61 16c-22.667 0 -37.334 9.33301 -44.001 28
c11.333 11.333 24.333 17 39 17l150 -16c56 0 84 -8.66699 84 -26z" />
    <glyph glyph-name="w" unicode="w" horiz-adv-x="1050" 
d="M1058 646c0 -18 -12.999 -27 -38.999 -27c-30.667 0 -52.334 -1 -65.001 -3c0 -34.667 8.16699 -88.167 24.5 -160.5s24.5 -126.833 24.5 -163.5c0 -76 -14.333 -145.667 -43 -209c-38.667 -85.333 -95 -128 -169 -128h-45c-30.667 0 -81 33 -151 99
c-51.333 48 -83.333 87 -96 117c-2.66699 6.66699 -22.667 50 -60 130c-33.333 -187.333 -91.666 -281 -174.999 -281c-30 0 -63.333 20 -100 60c-35.333 37.333 -56.333 71.666 -63 102.999c-9.33301 42.667 -14 74 -14 94c0 41.333 5 93.333 15 156l14 88
c0 4 -0.333008 10.167 -1 18.5s-1 14.5 -1 18.5c-15.333 6 -43 11 -83 15c-20.667 2 -31 11.667 -31 29c0 19.333 14 29 42 29c16.667 0 40.667 -5.33301 72 -16s55.333 -16 72 -16c3.33301 0 8.66602 -1 15.999 -3s12.666 -3 15.999 -3s8 0.5 14 1.5s10.667 1.5 14 1.5
c17.333 0 29 -2 35 -6c8.66699 -6 13 -17 13 -33c0 -17.333 -14 -26 -42 -26c-9.33301 0 -30 5.33301 -62 16c-6.66699 -6 -12 -20 -16 -42c-4.66699 -26 -8.66699 -42.667 -12 -50c1.33301 -4.66699 2 -11 2 -19c0 -10.667 -2 -27.334 -6 -50.001l-6 -34v-114
c0 -21.333 13.667 -52.666 41 -93.999c30.667 -46 58 -69 82 -69c26.667 0 52 39.667 76 119c18.667 62 28 104 28 126v83c0 5.33301 -0.666992 13 -2 23s-2 17.667 -2 23c0 26.667 14.667 40 44 40c24.667 0 38.667 -4.66699 42 -14c0.666992 -2 3 -17.333 7 -46
c1.33301 -12.667 19.333 -68.334 54 -167.001c20 -57.333 58.333 -112.666 115 -165.999c63.333 -59.333 123.333 -89 180 -89c20.667 0 46.334 26.333 77.001 79c14 24 25.333 61 34 111c6.66699 38 10 72.667 10 104c0 36 -5 88 -15 156
c-14.667 99.333 -32.667 149 -54 149c-13.333 0 -33.333 -3.83301 -60 -11.5s-45.667 -11.5 -57 -11.5c-7.33301 0 -14.833 2.33301 -22.5 7s-11.5 10.334 -11.5 17.001c0 13.333 50.333 29 151 47c86 15.333 138.667 23 158 23c20.667 0 31 -10.333 31 -31z" />
    <glyph glyph-name="x" unicode="x" horiz-adv-x="652" 
d="M699 90l-62.002 -102.998c-42.667 -70.667 -66.667 -114.334 -72 -131.001c-15.333 -11.333 -28.333 -17 -39 -17c-16.667 0 -28 9.33301 -34 28c4 4 13.667 18.333 29 43s23 38.667 23 42c0 28 -47.333 99.667 -142 215c-30.667 62.667 -56 101 -76 115l-83 -293
c-0.666992 -12.667 9.66602 -25.334 30.999 -38.001c1.33301 -1.33301 17.666 -9.66602 48.999 -24.999v-32c-12 -8.66699 -22.667 -13 -32 -13c-3.33301 0 -35.333 16.667 -96 50c-70 38.667 -109.667 60 -119 64c-16.667 7.33301 -25 19.333 -25 36
c0 2 0.333008 3.66699 1 5c14 8.66699 26.333 13 37 13c11.333 0 24 -5 38 -15c17.333 -12.667 32.666 -22.667 45.999 -30c16.667 32 40 97 70 195c28 91.333 42 142.666 42 153.999c0 54 -16 107 -48 159c-36.667 60 -80 90 -130 90c14 0 6.83301 -9.16699 -21.5 -27.5
s-46.166 -27.5 -53.499 -27.5c-6 0 -12.333 2.66699 -19 8s-10 11 -10 17c0 11.333 26.333 38.333 79 81c70 56.667 107 85 111 85c30.667 0 46 -8 46 -24c0 -10 -24.667 -31.667 -74 -65c7.33301 -24 54.333 -96.667 141 -218c10 22.667 25.333 69.667 46 141
c20 68.667 30 107.334 30 116.001c0 10 -6.66699 18.667 -20 26c-17.333 9.33301 -26.666 14.666 -27.999 15.999c-15.333 16 -23 27 -23 33c0 7.33301 5.33301 13.333 16 18c8.66699 4 17.334 6 26.001 6c12 0 20.333 -1.66699 25 -5
c6.66699 -10 19.334 -23.333 38.001 -40l64 -38c26.667 -16 47.667 -24.333 63 -25c6.66699 -9.33301 10 -19.333 10 -30c0 -6.66699 -3.66699 -13.334 -11 -20.001s-14.333 -10 -21 -10c-10 0 -22 4.33301 -36 13l-46 29l-90 -298c26.667 -42 66 -99.333 118 -172l121 -171
c15.333 8.66699 28.333 27.334 39 56.001c8.66699 23.333 21.667 35 39 35c4.66699 0 11.334 -2.5 20.001 -7.5s13 -9.5 13 -13.5z" />
    <glyph glyph-name="y" unicode="y" horiz-adv-x="566" 
d="M605 335c0 -8 -15.6592 -16.3242 -46.9922 -24.9912s-47 -18 -47 -28c0 -21.333 3 -53.333 9 -96s9 -74.667 9 -96c0 -34.667 -5 -73.334 -15 -116.001c-12 -51.333 -42.667 -87.666 -92 -108.999c-53.333 -23.333 -88 -35 -104 -35c-12 0 -40 10.333 -84 31
c-37.333 17.333 -61.333 29.666 -72 36.999c-19.333 12.667 -39.333 36 -60 70c-9.33301 15.333 -14 32.666 -14 51.999s0.666992 31.666 2 36.999c5.33301 20.667 18 40 38 58c10 8.66699 39.333 20.667 88 36s81 23 97 23c30.667 0 58 -7.33301 82 -22
c28.667 -16.667 43 -39.334 43 -68.001c0 -16.667 -5.33301 -32.334 -16 -47.001s-24 -24.667 -40 -30c-37.333 -12.667 -68.333 -19 -93 -19c-10 0 -17.333 3.33301 -22 10c-1.33301 2 -5.33301 9.66699 -12 23c3.33301 1.33301 8.66602 6.66602 15.999 15.999
c4.66699 6 11.667 9 21 9c3.33301 0 8.66602 -0.5 15.999 -1.5s12.666 -1.5 15.999 -1.5c12.667 0 24.334 2.33301 35.001 7c14 6 21 14.333 21 25c0 33.333 -28 50 -84 50c-32 0 -65 -8.66699 -99 -26c-40 -20.667 -60 -45.334 -60 -74.001c0 -14.667 8.33301 -33 25 -55
c14.667 -20 29.334 -35 44.001 -45c9.33301 -3.33301 30.666 -12 63.999 -26c31.333 -13.333 46.666 -20 45.999 -20c54.667 0 95.667 16.667 123 50c26 31.333 39 74.666 39 129.999c0 11.333 -0.333008 21.333 -1 30l-14 178c-116.667 -44 -188.334 -66 -215.001 -66
c-30.667 0 -59 26.333 -85 79c-14 28.667 -25 59.667 -33 93c-1.33301 13.333 -2 43.333 -2 90c0 20 -2 50.333 -6 91c-18 -1.33301 -52.333 -6.33301 -103 -15c-6.66699 3.33301 -10 9.33301 -10 18c0 14 6.33301 22.667 19 26c30 7.33301 79 17.333 147 30l7 1
c59.333 10.667 92.333 16 99 16c8 0 16.667 -3.33301 26 -10v-26c-7.33301 -10.667 -19 -16 -35 -16c-1.33301 0 -3.5 0.5 -6.5 1.5s-5.5 1.5 -7.5 1.5c-10.667 0 -25.667 -2.33301 -45 -7c-22.667 -5.33301 -36 -10.666 -40 -15.999v-82c0 -35.333 5 -74.333 15 -117
c16.667 -70.667 42.667 -106 78 -106c22.667 0 58.334 9 107.001 27c38 14 65.667 25.667 83 35c-10 102.667 -17.333 170.667 -22 204c-10 77.333 -23.667 144.333 -41 201c-12 1.33301 -34.333 3.33301 -67 6l-49 4c-2 0 -5.16699 -0.5 -9.5 -1.5s-7.5 -1.5 -9.5 -1.5
c-4 0 -10.5 3 -19.5 9s-13.5 10.667 -13.5 14c0 9.33301 4.66699 17.5 14 24.5s18.666 10.5 27.999 10.5c-18.667 0 -10.334 -2 24.999 -6l57 -6c29.333 -2.66699 52.666 -4 69.999 -4c40 0 69 1.66699 87 5l27 5c6 0 11.833 -4.66699 17.5 -14s8.5 -17.333 8.5 -24
c0 -5.33301 -2.16699 -11 -6.5 -17s-8.83301 -9 -13.5 -9h-19c-2 0 -5.66699 1 -11 3s-9.33301 3 -12 3c-9.33301 0 -21.333 1 -36 3c-1.33301 -1.33301 -2.33301 -3.33301 -3 -6s-1.33398 -4.33398 -2.00098 -5.00098l51 -371c4 1.33301 15.667 6 35 14
s29.666 12 30.999 12c8.66699 0 16.167 -3.33301 22.5 -10s9.5 -14.334 9.5 -23.001z" />
    <glyph glyph-name="z" unicode="z" horiz-adv-x="566" 
d="M562 48c0 -21.333 -15.0039 -32.001 -45.0039 -32.001c-6.66699 0.666992 -32.667 2.66699 -78 6l-79 6c-20.667 1.33301 -70.667 -1.33398 -150 -8.00098c-89.333 -8 -141.666 -17.667 -156.999 -29c-10 12 -20.667 19.667 -32 23c1.33301 2 1.33301 4.33301 0 7
c-2 4.66699 -3 8 -3 10c0 8.66699 16.333 25 49 49c96 118 164.333 198.333 205 241l196 207c-9.33301 6.66699 -47.333 12.334 -114 17.001c-56.667 4 -106.334 6 -149.001 6c-31.333 0 -51 -3.66699 -59 -11c2.66699 -11.333 11.334 -38.333 26.001 -81
c10.667 -31.333 16 -49 16 -53c0 -14.667 -10.667 -22.667 -32 -24c-11.333 2.66699 -22 21 -32 55l-25 84l-14 22c-6 9.33301 -9 16.333 -9 21c0 10 5 17.833 15 23.5s20.333 8.5 31 8.5l224 -6l136 -12c2 0 5.66699 1 11 3s9 3 11 3c6.66699 0 14.5 -5.16699 23.5 -15.5
s13.5 -18.833 13.5 -25.5c0 -9.33301 -28.667 -42.666 -86 -99.999l-116 -116c-108 -109.333 -183.667 -197.333 -227 -264c4.66699 -2 10 -3 16 -3c6.66699 0 16.334 2.33301 29.001 7s21.667 7 27 7h194c4 0 19.333 -0.666992 46 -2l47 -2h19
c5.33301 0.666992 8 5.33398 8 14.001c0 26 -9.33301 70.333 -28 133c-0.666992 3.33301 -4.66699 9.33301 -12 18s-11 14 -11 16c0 9.33301 4 18.5 12 27.5s16.667 13.5 26 13.5c8.66699 0 19.334 -17.667 32.001 -53c6.66699 -19.333 13.334 -42.333 20.001 -69
c1.33301 -24 5 -55.667 11 -95c0.666992 -2 3.16699 -5.83301 7.5 -11.5s6.5 -10.834 6.5 -15.501z" />
    <glyph glyph-name="Aring" unicode="&#xc5;" horiz-adv-x="551" 
d="M568 -29c0 -8.66699 -85.333 -61.002 -256 -157.002c-13.333 1.33301 -24.666 5.33301 -33.999 12c2 7.33301 21.833 23.333 59.5 48s56.5 41.334 56.5 50.001c0 19.333 -7 49 -21 89c-10.667 30 -26 81.333 -46 154c-24 12 -77.333 22 -160 30
c-6.66699 -8 -10.667 -25.667 -12 -53l-4 -67c19.333 -7.33301 42 -16.666 68 -27.999c37.333 -16 56 -31 56 -45c0 -11.333 -9 -17 -27 -17c-15.333 0 -26 3.33301 -32 10c-12.667 13.333 -33 24.333 -61 33c-8.66699 -0.666992 -22.334 0 -41.001 2
c-6 6 -15.333 13.667 -28 23c-7.33301 5.33301 -30.333 15.666 -69 30.999c-7.33301 2.66699 -11 7.33398 -11 14.001c0 4.66699 3.66699 9.5 11 14.5s13.666 7.5 18.999 7.5l64 -25c2.66699 18.667 6 53 10 103c-5.33301 3.33301 -12 5 -20 5c-2 0 -5.33301 -0.5 -10 -1.5
s-8 -1.5 -10 -1.5c-7.33301 0 -16.166 3.66699 -26.499 11s-15.5 14.333 -15.5 21s5 12.334 15 17.001c8 4 15.667 6 23 6c5.33301 0 14 -2 26 -6l24 -8l49 389c-0.666992 4 2.66602 7.33301 9.99902 10c10.667 4 18.334 8.33301 23.001 13c-51.333 20.667 -77 45 -77 73
c0 18.667 9 35.334 27 50.001s36.667 22 56 22c26.667 0 52 -6.66699 76 -20c28 -15.333 42 -35.333 42 -60c0 -16.667 -6.83301 -32.334 -20.5 -47.001s-28.834 -21.667 -45.501 -21c-1.33301 -3.33301 -0.666016 -12.333 2.00098 -27s4 -23.667 4 -27
c2 -8 17.667 -63.333 47 -166c34.667 -120 55 -193.333 61 -220c26 -110 53 -199.667 81 -269c12 6.66699 29.333 19 52 37c15.333 12 27.333 18 36 18c4.66699 0 10.667 -3.33301 18 -10s11 -12.334 11 -17.001zM264 715.998c0 15.333 -4.66504 27.6689 -13.998 37.002
c-22.667 -2 -41.334 0.666992 -56.001 8c-0.666992 -2.66699 -3.33398 -7.33398 -8.00098 -14.001s-7 -12.334 -7 -17.001c0 -10 4.83301 -18.667 14.5 -26s19.5 -11 29.5 -11c8 0 16.833 2.16699 26.5 6.5s14.5 9.83301 14.5 16.5zM317.002 225.001l-101.002 356.999
c-9.33301 -31.333 -15.666 -62.333 -18.999 -93c-11.333 -111.333 -21 -194.666 -29 -249.999c92.667 -9.33301 142.334 -14 149.001 -14z" />
    <glyph glyph-name="AE" unicode="&#xc6;" horiz-adv-x="792" 
d="M805 82c0 -10.667 -1.33203 -17.666 -3.99902 -20.999c-20 -2.66699 -86 -27 -198 -73c-38.667 -22.667 -83.334 -44.667 -134.001 -66c-80 -34 -125 -51 -135 -51c-2.66699 0 -7 0.666992 -13 2s-10.667 2 -14 2l-3 5c-2.66699 3.33301 -4 6.66602 -4 9.99902
c0 8.66699 19 20.334 57 35.001c40.667 16 64 29 70 39l-64 251c-14 2.66699 -29.333 4 -46 4c-35.333 0 -72.666 -5.33301 -111.999 -16c-7.33301 -40.667 -16 -102 -26 -184c22.667 -7.33301 43 -11.666 61 -12.999c2 0.666992 4.33301 1 7 1c8 0 16.333 -5.33301 25 -16
v-29c-9.33301 -4.66699 -18 -7 -26 -7c-2 0 -31.667 8.33301 -89 25l-131 38c-4.66699 2.66699 -7 8 -7 16c0 5.33301 3.66699 10.5 11 15.5s14 7.5 20 7.5c-2 0 25 -9.33301 81 -28l27 161c0 4.66699 -1.66699 8.66699 -5 12c-2 0 -5 -0.5 -9 -1.5s-7 -1.5 -9 -1.5
c-5.33301 0 -11.166 3.16699 -17.499 9.5s-9.5 12.166 -9.5 17.499c0 2.66699 0.333008 5 1 7c17.333 8.66699 27.333 13 30 13c1.33301 0 3.66602 -0.5 6.99902 -1.5s5.66602 -1.5 6.99902 -1.5c9.33301 0 14.333 2.66699 15 8c-0.666992 -3.33301 -1 2.66699 -1 18l47 387
c0 8.66699 -5.83301 18 -17.5 28s-21.834 14 -30.501 12c-22 4 -33 10 -33 18c0 6 4.5 12.5 13.5 19.5s16.833 10.5 23.5 10.5c92 -14 146.333 -21.333 163 -22l263 -6c4.66699 0 11.5 -2.33301 20.5 -7s13.5 -9 13.5 -13c1.33301 -24 6 -68.333 14 -133
c8 -8 12 -17.333 12 -28c0 -17.333 -7.66699 -26 -23 -26c-18.667 0 -30 15.667 -34 47c-0.666992 8 -2.66699 23.667 -6 47l-12 61c-43.333 12 -92.666 18.667 -147.999 20c-0.666992 0 -50.667 -1 -150 -3c40 -124 76.667 -263 110 -417c6 -3.33301 12.667 -5 20 -5
s17.333 0.333008 30 1c15.333 0.666992 25.666 1 30.999 1c4 4.66699 6 11.667 6 21c0 6 -1 14.667 -3 26s-3 20 -3 26v19c13.333 6.66699 21 10 23 10s5.16699 -0.5 9.5 -1.5s7.5 -1.5 9.5 -1.5c4.66699 -11.333 8.33398 -31.666 11.001 -60.999l7 -77
c-6.66699 -10 -10 -17 -10 -21c0 -3.33301 1.83301 -5.5 5.5 -6.5s5.5 -2.16699 5.5 -3.5l-3 -7c-0.666992 -1.33301 -1 -3.33301 -1 -6c0 -3.33301 0.666992 -8 2 -14c-0.666992 -2.66699 -0.666992 -5 0 -7c-5.33301 -8.66699 -12.666 -13 -21.999 -13c-22 0 -33 6 -33 18
c0 2.66699 0.833008 7.5 2.5 14.5s2.5 12.167 2.5 15.5c0 19.333 -20.667 29 -62 29c-8 0 -12 -3 -12 -9c0 -10.667 10 -49.667 30 -117s33.333 -108 40 -122l178 83c23.333 6.66699 38.666 11.667 45.999 15c36 14.667 51 39 45 73c-4.66699 27.333 -6.66699 43.333 -6 48
c1.33301 15.333 12.333 23 33 23c2.66699 0 6.5 -2.16699 11.5 -6.5s7.5 -7.83301 7.5 -10.5c-0.666992 -14.667 -1 -26.334 -1 -35.001c0 -14 0.333008 -30.333 1 -49c7.33301 -14.667 11 -25.334 11 -32.001zM349.001 262.001l-94 352.001l-44 -368
c32 3.33301 78 8.66602 138 15.999z" />
    <glyph glyph-name="Ccedilla" unicode="&#xc7;" 
 />
    <glyph glyph-name="Oslash" unicode="&#xd8;" horiz-adv-x="488" 
d="M523 287c0 -80 -23.335 -151.333 -70.002 -214c-51.333 -68.667 -115.666 -103 -192.999 -103h-20c-6.66699 2 -28 9.33301 -64 22c-4.66699 -10 -14 -39.667 -28 -89c-5.33301 -19.333 -17.666 -29 -36.999 -29c-6 0 -13.167 2.83301 -21.5 8.5s-12.5 11.167 -12.5 16.5
c0 2.66699 6.33301 19 19 49l31 73c-35.333 22 -63.666 55.333 -84.999 100c-20 41.333 -30 84.333 -30 129c0 74 23.667 145.667 71 215c55.333 80.667 124 121 206 121c2.66699 0 20 -6.33301 52 -19c1.33301 -0.666992 3 -1 5 -1s4 1.33301 6 4
c18.667 48.667 41 115.667 67 201c8.66699 6.66699 18.667 10 30 10c12 0 22.333 -8.33301 31 -25l-84 -227c19.333 -20.667 43.666 -50.667 72.999 -90c36 -64 54 -114.667 54 -152zM463.998 280c0 32.667 -8.5 67.333 -25.5 104s-37.833 66 -62.5 88l-181 -439
c22.667 -10.667 45.334 -16 68.001 -16c59.333 0 108.666 30 147.999 90c35.333 53.333 53 111 53 173zM325.998 512.999c-11.333 7.33301 -21.3301 11 -29.9971 11c-2.66699 0 -7.33398 3.16699 -14.001 9.5s-11.334 9.5 -14.001 9.5c-52 0 -99.667 -35.333 -143 -106
c-40 -64.667 -60 -127 -60 -187c0 -34.667 7 -69 21 -103c15.333 -36.667 35.666 -64.667 60.999 -84z" />
    <glyph glyph-name="aring" unicode="&#xe5;" horiz-adv-x="557" 
d="M433 702c0 -64.667 -26.333 -96.999 -79 -96.999c-34.667 0 -64 8.66699 -88 26c-26.667 19.333 -40 45.666 -40 78.999c0 12.667 5.5 28.167 16.5 46.5s22.5 27.5 34.5 27.5c104 0 156 -27.333 156 -82zM597 -122.999c0 -20.667 -10.3369 -31.0029 -31.0039 -31.0029
c4.66699 0 -9 4 -41 12l-99 4c-39.333 1.33301 -74 5 -104 11c-18 1.33301 -33.667 8.33301 -47 21c10.667 26 24.334 39 41.001 39c6.66699 -2 31.667 -8.33301 75 -19c6 8.66699 9.33301 23.667 10 45l2 66c-4 0.666992 -12.667 -3.16602 -26 -11.499
s-20.333 -12.5 -21 -12.5c-6 0 -15 -1 -27 -3s-21 -3 -27 -3c-5.33301 0 -13 0.5 -23 1.5s-17.667 1.5 -23 1.5l-12 2c-51.333 8.66699 -89.333 17.334 -114 26.001c-51.333 18 -77 42.333 -77 73c0 6.66699 2.33301 18.834 7 36.501s8.66699 28.167 12 31.5
c22 20 45.667 33.333 71 40c78 21.333 149 32 213 32c6 0 14.5 -1 25.5 -3s19.5 -3 25.5 -3c9.33301 0 14 28 14 84v33v33c0 4 0.333008 6.33301 1 7c0 0.666992 0 -0.666016 0 -3.99902c0 96 -31.333 144 -94 144c-4.66699 0 -11.667 -0.666992 -21 -2s-16.333 -2 -21 -2
c-28 0 -60.667 -12.333 -98 -37c-40.667 -26 -61 -52.333 -61 -79c0 -17.333 12.667 -34.333 38 -51c23.333 -16 44 -24 62 -24c2 0.666992 8 3.66699 18 9c-1.33301 4 -7.5 13.667 -18.5 29s-16.5 24 -16.5 26c0 8.66699 3.83301 15.667 11.5 21s15.834 8 24.501 8
c16 0 29.333 -8.33301 40 -25c9.33301 -14 14 -29.667 14 -47c0 -42.667 -18.667 -64 -56 -64h-25c-14 0 -44.333 10.667 -91 32c-38 17.333 -57 48.333 -57 93c0 27.333 22.333 58.666 67 93.999c30 24 54.667 40.333 74 49c32.667 15.333 75.334 23 128.001 23
c77.333 0 123 -46 137 -138c-0.666992 -18 -1 -37 -1 -57c0 -19.333 0.333008 -39.333 1 -60l-22 -369c-1.33301 -24 1.33398 -41 8.00098 -51h92c8.66699 0 17.667 -2.33301 27 -7c10 -6.66699 15 -14.667 15 -24zM380.996 695.998c0 30 -17.667 45 -53 45
c-19.333 0 -32.333 -2 -39 -6c-11.333 -5.33301 -17 -17.333 -17 -36s9.66699 -33.5 29 -44.5s38.333 -15.167 57 -12.5c15.333 19.333 23 37.333 23 54zM410.996 182.998c-32.667 8.66699 -58.667 13.001 -78 13.001c-34.667 0 -75 -5.66699 -121 -17
c-64.667 -16 -97 -36.667 -97 -62c0 -22.667 25.667 -40.667 77 -54c38.667 -10 75.667 -15 111 -15c11.333 0 23.333 2.66699 36 8c15.333 6 23 14 23 24c0 3.33301 -2 8.5 -6 15.5s-6 11.5 -6 13.5c0 13.333 7.33301 23.666 22 30.999c12.667 6.66699 25.667 9 39 7v36z
" />
    <glyph glyph-name="ae" unicode="&#xe6;" horiz-adv-x="641" 
d="M622 151c0 -32.667 -10.666 -65.667 -31.999 -99c-23.333 -38 -50.333 -57 -81 -57c-28 0 -75.333 28 -142 84l-6 -39c-4.66699 -17.333 -14 -26 -28 -26c-2.66699 0 -7.33398 1 -14.001 3s-11.667 3 -15 3c0 2 -1.16699 5.66699 -3.5 11s-3.5 9.33301 -3.5 12
c0 3.33301 1.66699 10 5 20s6 16 8 18v23c-1.33301 1.33301 -4 6.33301 -8 15c-5.33301 -26 -17.666 -49 -36.999 -69c-20.667 -22 -43.667 -33 -69 -33h-28c-38 0 -71 16.333 -99 49c-27.333 30.667 -41 65.334 -41 104.001c0 6.66699 0.666992 17 2 31s2 24.333 2 31
c26 48 89 72 189 72c27.333 0 51 -2 71 -6c5.33301 8 8 16.333 8 25c0 16 -3.33301 45.333 -10 88c-3.33301 26 -7 52 -11 78c-5.33301 33.333 -11 57.666 -17 72.999c-10.667 26.667 -33.667 40 -69 40c-26 0 -51.833 -12.333 -77.5 -37s-38.5 -50 -38.5 -76
c0 -17.333 9.16699 -35.333 27.5 -54s36.166 -28 53.499 -28c8 0 12.667 2.66699 14 8l-1 -2c-1.33301 1.33301 -2.66602 7 -3.99902 17c-2.66699 21.333 -5 34.333 -7 39l-5 7c-4 4.66699 -6 9 -6 13c0 6.66699 3.83301 12.167 11.5 16.5s15.167 6.5 22.5 6.5
c10.667 0 21 -15.667 31 -47c8 -25.333 12 -42.666 12 -51.999c0 -12.667 -6.16699 -23.667 -18.5 -33s-25.166 -14 -38.499 -14c-27.333 0 -56.333 9.66699 -87 29c-36 22.667 -54 49.667 -54 81c0 44 19.667 83.333 59 118c37.333 34 78.333 51 123 51
c47.333 0 80.666 -22 99.999 -66c7.33301 -16.667 17 -58.667 29 -126c44 45.333 84.333 68 121 68c38.667 0 70.667 -15.333 96 -46c23.333 -28.667 35 -62.667 35 -102c0 -38 -11.167 -67.167 -33.5 -87.5s-52.833 -30.5 -91.5 -30.5c-4.66699 0 -11.334 0.5 -20.001 1.5
s-15.167 1.5 -19.5 1.5s-10.333 1 -18 3s-13.5 3 -17.5 3s-10 -0.5 -18 -1.5s-14 -1.5 -18 -1.5c-1.33301 -4 -2 -13.333 -2 -28c0 -36.667 18.333 -76.667 55 -120s73 -65 109 -65c13.333 0 24.333 11.333 33 34c6.66699 17.333 10 34.333 10 51
c0 15.333 -5.5 27.666 -16.5 36.999s-24.167 14 -39.5 14c-10 0 -15 -4.66699 -15 -14c0 -2.66699 0.5 -7 1.5 -13s1.5 -10.333 1.5 -13c0 -18 -9 -30.667 -27 -38c-7.33301 -1.33301 -17 1.5 -29 8.5s-18 14.167 -18 21.5c0 66.667 21.667 100 65 100c26 0 53 -6 81 -18
c38.667 -16.667 58 -39 58 -67zM535.001 366c0 22.667 -6.33301 45.332 -19 67.999c-16.667 29.333 -38.667 44 -66 44c-30.667 0 -55.667 -21.333 -75 -64c-14.667 -32 -22 -61.333 -22 -88c0 -7.33301 1.33301 -12.333 4 -15l101 -7c51.333 -3.33301 77 17.334 77 62.001z
M302.001 169.998c-3.33301 32.667 -5.00098 63.001 -5.00098 91.001c-33.333 6 -63.666 9 -90.999 9c-34 0 -62.667 -6.66699 -86 -20c-28.667 -16 -43 -39.667 -43 -71c0 -27.333 9.66699 -53 29 -77c20.667 -26 44 -39 70 -39c14.667 0 30.334 6 47.001 18s25 25 25 39
c0 15.333 -10.333 27.666 -31 36.999c-16 7.33301 -33 11 -51 11c-22 0 -33 5.66699 -33 17c0 8 4.5 16 13.5 24s17.5 12 25.5 12c9.33301 0 31.666 -6 66.999 -18c40.667 -14 61.667 -25 63 -33z" />
    <glyph glyph-name="oslash" unicode="&#xf8;" horiz-adv-x="563" 
d="M579 585c0 -6 -17.335 -26.334 -52.002 -61.001l-57 -57c14 -11.333 26.333 -31.166 37 -59.499s16 -52.5 16 -72.5c0 -63.333 -29.333 -120 -88 -170c-55.333 -47.333 -115.333 -71 -180 -71c-8.66699 0 -21 2 -37 6s-28.333 6 -37 6c-2 0 -12.167 -12.333 -30.5 -37
s-32.5 -37 -42.5 -37c-14 0 -25.333 9 -34 27c14.667 14 32.334 35.333 53.001 64c-2 2 -14.333 11 -37 27c-16 11.333 -27 22 -33 32c-25.333 42.667 -38 90.667 -38 144c0 75.333 27.667 144.666 83 207.999c58 65.333 124 98 198 98c12 0 21.333 -8.66699 28 -26
c-4 -8.66699 -15 -13.667 -33 -15c-52 2 -103.333 -27.333 -154 -88c-48.667 -58 -73 -113.333 -73 -166c0 -87.333 29.333 -142.666 88 -165.999l237 280c-13.333 16 -33 24 -59 24c-10.667 0 -22.5 -3.5 -35.5 -10.5s-20.167 -15.5 -21.5 -25.5c3.33301 -8 5 -17 5 -27
c0 -22 -9.33301 -33 -28 -33s-29 8 -31 24c-2.66699 22 -4.66699 34 -6 36c6 24 21.333 43.667 46 59s50 23 76 23c11.333 0 27.666 -4.16699 48.999 -12.5s35 -12.5 41 -12.5s20 12.333 42 37c18.667 21.333 29.334 34.666 32.001 39.999
c4 8.66699 3.33301 13.334 -2 14.001l22 16c10 7.33301 17.667 11 23 11c6.66699 0 13.834 -3.16699 21.501 -9.5s11.5 -12.833 11.5 -19.5zM466.998 330.999c0 11.333 -0.333008 18.334 -1 21.001c-4 17.333 -7.66699 29.666 -11 36.999c-7.33301 18.667 -15 30.667 -23 36
c-29.333 -29.333 -67.666 -74.333 -114.999 -135c-50 -64 -87.667 -109.333 -113 -136c33.333 -9.33301 55.666 -14 66.999 -14c45.333 0 89.333 20.5 132 61.5s64 84.167 64 129.5z" />
    <glyph glyph-name="OE" unicode="&#x152;" 
 />
    <glyph glyph-name="afii10030" unicode="&#x41c;" horiz-adv-x="1000" 
 />
    <glyph glyph-name=".null" horiz-adv-x="0" 
 />
    <glyph glyph-name="nonmarkingreturn" 
 />
    <glyph glyph-name="glyph95" 
 />
    <glyph glyph-name="glyph96" 
 />
    <glyph glyph-name="glyph94" 
 />
    <glyph glyph-name="glyph95" 
 />
    <glyph glyph-name="ch257" 
 />
    <glyph glyph-name="ch258" 
 />
    <glyph glyph-name="ch259" 
 />
    <glyph glyph-name="glyph96" 
 />
  </font>
</defs>
</svg>
